<?xml version="1.0" encoding="UTF-8" standalone="no"?>
<!-- Created with Inkscape (http://www.inkscape.org/) -->

<svg
   xmlns:dc="http://purl.org/dc/elements/1.1/"
   xmlns:cc="http://creativecommons.org/ns#"
   xmlns:rdf="http://www.w3.org/1999/02/22-rdf-syntax-ns#"
   xmlns:svg="http://www.w3.org/2000/svg"
   xmlns="http://www.w3.org/2000/svg"
   xmlns:sodipodi="http://sodipodi.sourceforge.net/DTD/sodipodi-0.dtd"
   xmlns:inkscape="http://www.inkscape.org/namespaces/inkscape"
   width="169.83333mm"
   height="169.83333mm"
   viewBox="0 0 169.83333 169.83333"
   version="1.1"
   id="svg8"
   inkscape:version="0.92.2 5c3e80d, 2017-08-06"
   sodipodi:docname="green_0.svg"
   inkscape:export-filename="/home/asraelite/code/js/improcket/dist/img/celestials/green_0.png"
   inkscape:export-xdpi="151.97278"
   inkscape:export-ydpi="151.97278">
  <defs
     id="defs2" />
  <sodipodi:namedview
     id="base"
     pagecolor="#ffffff"
     bordercolor="#666666"
     borderopacity="1.0"
     inkscape:pageopacity="0.0"
     inkscape:pageshadow="2"
     inkscape:zoom="0.98994949"
     inkscape:cx="333.2028"
     inkscape:cy="366.87849"
     inkscape:document-units="mm"
     inkscape:current-layer="layer1"
     showgrid="false"
     inkscape:window-width="1366"
     inkscape:window-height="714"
     inkscape:window-x="0"
     inkscape:window-y="0"
     inkscape:window-maximized="1">
    <inkscape:grid
       type="xygrid"
       id="grid17"
       spacingx="10.583333"
       spacingy="10.583333"
       originx="0.2500001"
       originy="0.2499001" />
  </sodipodi:namedview>
  <metadata
     id="metadata5">
    <rdf:RDF>
      <cc:Work
         rdf:about="">
        <dc:format>image/svg+xml</dc:format>
        <dc:type
           rdf:resource="http://purl.org/dc/dcmitype/StillImage" />
        <dc:title></dc:title>
      </cc:Work>
    </rdf:RDF>
  </metadata>
  <g
     inkscape:label="Layer 1"
     inkscape:groupmode="layer"
     id="layer1"
     transform="translate(25.041868,-147.06561)">
    <g
       id="g918"
       style="stroke-width:0.5;stroke-miterlimit:4;stroke-dasharray:none">
      <g
         id="g931"
         transform="translate(-2.2678571,1.5119048)"
         style="stroke-width:0.5;stroke-miterlimit:4;stroke-dasharray:none">
        <path
           style="fill:#143105;fill-opacity:1;stroke:#000000;stroke-width:1.88976383;stroke-linecap:round;stroke-linejoin:round;stroke-miterlimit:4;stroke-dasharray:none;stroke-opacity:1;paint-order:fill markers stroke"
           d="M 320,2.3144531 A 319.99999,319.99999 0 0 0 0,322.31445 a 319.99999,319.99999 0 0 0 320,320 319.99999,319.99999 0 0 0 320,-320 A 319.99999,319.99999 0 0 0 320,2.3144531 Z"
           transform="matrix(0.26458333,0,0,0.26458333,-22.524011,145.19134)"
           id="path884"
           inkscape:connector-curvature="0" />
      </g>
      <path
         style="opacity:1;fill:#031c73;fill-opacity:1;stroke:#000000;stroke-width:0.5;stroke-miterlimit:4;stroke-dasharray:none;stroke-opacity:1;paint-order:fill markers stroke"
         d="m 46.763069,160.3952 c -1.578311,0.90787 -3.097014,1.97533 -4.668449,2.88199 -0.680093,1.06535 -1.159748,2.29424 -2.248958,3.07888 -3.205411,2.69414 -7.934624,2.5951 -11.121284,5.31906 -2.096019,2.10458 -1.224309,5.34007 0.0026,7.65379 1.265764,3.75181 -0.940419,8.05374 -4.190958,10.06192 -2.104225,1.48279 -5.532162,1.39845 -6.740673,-1.19217 -1.002575,-1.75454 -1.765099,-4.54717 -4.219897,-4.57957 -2.482414,0.45875 -3.6182647,3.2979 -3.7677305,5.5671 -0.2719467,1.90224 0.1707489,3.81112 1.3683485,5.33058 1.309264,1.94571 1.2745,4.77888 -0.576146,6.37413 -3.19087,3.39795 -8.1201212,5.08303 -10.43657364,9.29711 -0.83652756,2.14305 0.53386381,4.67584 -1.0846882,6.62595 -2.87690526,4.01587 -8.48466986,5.21178 -10.86755316,9.65781 -0.333246,0.3183 -0.33919,2.07122 -0.607715,1.08521 -1.182489,-2.42866 -2.796965,-4.97094 -5.296834,-6.18102 -1.544819,-0.4032 -2.061911,1.64254 -2.044837,2.78639 0.09897,3.61117 1.927693,6.90073 3.275252,10.17509 2.194457,5.08325 5.4652,9.80262 10.0785923,12.96676 5.45398393,4.35108 8.6107967,11.09485 14.5798522,14.84705 1.4133459,0.75905 2.8036125,1.92839 4.4592585,1.10991 6.931517,-1.76283 13.468133,2.08736 19.38415,5.27293 1.580136,0.88845 3.152505,1.79446 4.731073,2.69257 1.6266,-5.855 6.999239,-9.64225 8.865092,-15.41663 0.32376,-1.396 2.200092,-1.66652 3.025655,-2.76779 3.376205,-3.19168 4.379042,-8.03221 4.348573,-12.50879 0.159139,-1.70377 -0.150648,-3.59121 0.302683,-5.16876 0.783686,-1.16097 2.138905,-1.93181 3.526023,-1.31509 3.360777,1.43324 5.380731,4.95676 8.773623,6.32623 2.124117,0.52108 3.464922,-1.81684 4.154786,-3.44216 -1.642676,-1.92739 -2.954014,-4.43145 -2.217436,-7.02645 0.960372,-4.26684 5.779268,-7.9433 10.150285,-6.3562 2.044964,0.9587 3.623807,3.18894 3.055628,5.51801 -0.72004,4.14322 -4.690391,7.05667 -4.987809,11.3192 -0.01264,1.45595 1.27422,2.35147 2.309418,3.12643 -3.7623,5.48081 -9.02341,10.45225 -10.317715,17.23512 -0.519623,2.23962 0.265721,4.47094 0.265618,6.68797 -0.978445,3.82029 -4.736095,5.90112 -7.288961,8.60929 -1.646616,1.40633 -2.635875,3.51254 -2.318205,5.69578 -0.127805,1.32376 1.177978,2.61987 1.389578,3.46335 -1.182283,-0.12813 -2.633096,0.94902 -1.888773,2.20297 1.449247,2.82867 4.820888,3.42578 7.627287,4.03931 4.316954,0.93345 8.888928,2.11907 13.290298,1.07769 2.107891,-0.84245 3.754797,-2.80862 3.835942,-5.13302 0.711653,-1.64035 -0.227912,-2.38891 -1.776042,-2.79871 -2.910461,-1.29753 -5.90243,-3.90746 -5.686552,-7.42961 0.02308,-3.02419 2.320738,-5.38596 3.536736,-7.98711 2.471073,-4.42399 5.50272,-9.17459 10.518738,-10.98486 1.00684,-0.41534 1.683999,-0.33142 1.384411,0.77153 0.0669,3.839 4.034229,6.21026 7.481197,6.59185 1.598607,0.0729 3.557953,0.38724 4.877743,-0.70487 1.61919,-2.95734 4.26994,-5.81519 7.80765,-6.10243 5.25954,-0.62374 10.18011,2.15837 14.90259,4.23484 1.89949,0.49869 4.39016,0.32732 5.76089,-1.25056 1.49085,-2.41737 0.38041,-5.42972 -0.0571,-7.99889 -0.94248,-4.28808 -2.38003,-8.62741 -1.86213,-13.01637 1.32539,-2.79095 4.24997,-4.45829 5.7211,-7.14272 0.34665,-1.45512 0.25184,-3.63623 -1.26039,-4.37492 -2.34869,0.37124 -4.63055,1.29824 -7.00161,1.68255 -3.34392,0.5312 -6.9834,1.39939 -10.25831,0.11062 -1.97664,-1.2482 -2.04385,-4.24021 -0.2322,-5.67763 1.73781,-2.32156 4.60041,-4.09269 5.29752,-7.05389 -0.27337,-1.44437 0.78921,-2.68201 0.68013,-4.1462 0.12299,-3.6456 -1.9764,-7.63645 -5.49844,-8.94293 -1.57383,-0.59412 -3.2117,0.28079 -4.02043,1.6645 -0.55835,0.93877 -0.94834,2.10164 -2.24017,2.23397 -2.21462,0.83091 -4.44235,-0.61744 -5.36797,-2.62758 -2.22337,-3.85914 -2.92068,-8.35867 -4.75493,-12.37202 -0.665659,-1.10444 -3.060196,-0.49559 -2.775023,-2.2257 0.183229,-0.79895 1.510488,-2.29503 2.109433,-0.97617 0.93534,2.08638 1.51466,2.31612 1.5766,-0.15929 0.0523,-0.9969 1.51101,0.0726 2.1224,-0.0371 4.76151,0.89222 7.81522,5.51814 12.546,6.46731 1.82158,0.21764 3.54454,-0.83099 4.59249,-2.26653 -2.9457,-2.71928 -4.97832,-6.17285 -6.80622,-9.69537 -2.07525,-3.64005 -3.4404,-7.98813 -7.05443,-10.49668 -3.12219,-2.3998 -7.242958,-3.1439 -11.085118,-2.56832 0.460505,-1.99408 -1.027192,-4.35709 -3.236494,-4.1398 -3.633171,0.22661 -7.10392,2.52095 -8.913667,5.64772 -1.00438,2.07556 1.34675,4.36624 0.01344,6.31331 -2.666918,1.30153 -5.633921,-0.59939 -7.48688,-2.48564 0.932082,-1.10627 2.983937,-2.26912 2.184879,-3.99717 -1.613995,-2.15987 -4.669364,-2.51264 -7.178889,-2.61536 -1.705766,0.0619 -4.294783,0.18162 -4.849318,2.18334 -0.234116,1.22321 0.624443,2.64443 1.946651,2.64945 1.93716,0.84891 1.10544,3.48956 0.294555,4.8948 -0.312645,0.6391 -0.943525,1.01 -0.745691,-0.0336 -0.03433,-2.89993 -3.195661,-4.23783 -5.558316,-4.91856 -3.020634,-0.80102 -6.311728,-0.25331 -9.154996,0.90847 -1.04629,0.59362 -0.162113,1.74173 0.572508,2.15381 1.96379,1.8423 5.356328,3.12711 5.261245,6.27409 0.01022,0.87108 -0.654926,1.37225 -1.531692,1.08469 -1.847712,-0.32825 -3.325667,1.25099 -3.582209,2.96675 -0.428506,2.48139 0.193445,4.98697 0.506428,7.44295 -4.438182,2.48182 -8.011483,6.57128 -12.963033,8.06979 -2.594041,0.30592 -5.275304,0.0982 -7.599534,-1.18648 -0.964388,-0.54152 -3.088772,-0.70417 -2.936772,-2.18075 1.52876,-2.84637 5.041921,-4.2111 6.2699,-7.25434 0.173932,-1.37612 -0.236283,-2.89356 0.807186,-4.05815 1.655299,-2.68374 4.540395,-4.55977 5.728335,-7.52305 0.162523,-1.75304 -1.862191,-2.35873 -2.998785,-3.19619 -1.342237,-1.75828 -0.516422,-4.65563 1.626775,-5.39089 3.762621,-1.66834 7.989736,-1.68982 11.971879,-1.18907 1.655472,-0.47785 3.101787,-2.24726 2.993615,-3.99769 -0.867952,-2.99378 -4.211182,-4.14824 -6.535547,-5.77907 -1.342091,-0.69893 -2.458783,-1.83779 -3.861234,-2.39872 z m 49.826417,16.27549 c 0.94878,0.14323 1.75519,0.73338 2.023131,1.62832 1.360244,1.30656 3.658983,0.4968 5.055503,1.59784 0.9095,1.2453 -0.38787,2.75478 -1.77922,2.281 -1.978885,-0.50506 -4.271894,0.64603 -5.966042,-0.89452 -1.228045,-0.72001 0.295433,-1.48273 0.133842,-2.38332 -0.246438,-0.89658 -0.722001,-1.84021 0.532786,-2.22932 z m -67.154041,14.93914 c 1.709375,-0.0502 0.280644,3.31043 -0.802018,1.72082 -0.626118,-0.6389 -0.112482,-1.82306 0.802018,-1.72082 z m 48.165536,0.47335 c 1.845027,0.60394 2.977022,2.50914 4.353041,3.80236 1.249384,1.05379 1.874004,2.82671 0.839922,4.28552 -0.230253,0.68019 -0.975592,1.27408 -1.447974,0.37517 -1.246712,-1.49319 -2.136955,-3.52985 -4.164603,-4.11138 -1.828442,-0.90365 -2.108049,-4.25184 0.419614,-4.35167 z m -52.82675,1.96319 c 1.661223,0.86998 1.547524,3.21147 1.763233,4.85454 0.139097,2.38969 0.228719,5.31916 -2.00973,6.8326 -1.67159,1.58565 -4.658092,-0.079 -4.338754,-2.34714 -0.188952,-2.26942 1.426094,-4.07003 3.049945,-5.41156 1.205106,-1.1779 -0.77829,-3.59575 1.535306,-3.92844 z m 41.955579,5.88026 c 2.837603,0.5316 4.210209,3.55629 5.919708,5.54408 1.980314,2.89699 4.667877,5.99091 4.524097,9.71649 -0.969179,1.73299 -3.349747,1.91509 -5.000728,2.69699 -2.059974,0.61504 -3.873757,1.75346 -5.666319,2.89182 -2.293123,0.85023 -4.905695,0.85962 -7.300847,0.49712 -2.513218,-0.75889 -5.405702,-2.88959 -4.639511,-5.89576 0.485484,-3.23281 3.573161,-5.01072 6.444052,-5.83582 1.720389,-0.77377 3.773664,-0.66938 5.440494,-1.46399 0.465008,-1.20239 -1.170066,-2.02029 -1.717206,-2.89543 -0.935109,-1.06888 -2.548713,-2.97535 -1.021644,-4.1951 0.861833,-0.61986 1.937293,-1.10044 3.017904,-1.0604 z m 21.528399,2.44223 c 0.71291,0.92395 1.085316,2.42563 0.844394,3.61218 -0.857514,1.15648 -2.432486,-0.72165 -2.044835,-1.76423 0.09002,-0.66042 0.329891,-1.83833 1.200441,-1.84795 z m -0.914154,11.32851 c 2.561667,2.8173 6.922987,4.27067 7.996928,8.24084 0.801799,2.06486 0.161436,5.38161 -2.565736,5.35161 -0.488476,0.0352 -1.720307,-0.25057 -0.900202,-0.8723 0.928328,-0.95512 2.456048,-2.09689 1.672765,-3.62303 -0.872898,-3.90899 -4.659649,-6.01155 -6.47454,-9.36842 l 0.18691,0.18726 z m -64.765556,3.72277 c 1.609045,0.20446 3.15066,1.07747 4.033345,2.42621 3.36069,2.83962 7.692496,4.13917 11.252544,6.64817 2.515475,2.0238 2.372198,5.73781 0.939477,8.32456 -1.577607,2.94456 -4.921033,5.31959 -4.859652,9.00617 0.0025,1.44747 1.267806,2.91589 0.136427,4.23901 -1.120648,1.51658 -3.063423,3.20258 -5.044655,2.74454 -0.49703,-4.22027 1.802316,-8.75003 -0.377753,-12.76201 -0.514559,-1.44278 -1.922611,-2.70564 -3.540353,-2.19109 -1.733819,0.54279 -3.702267,1.38623 -4.634859,3.02101 -0.673844,2.96788 -0.480862,6.2617 -1.966804,8.97619 -2.884437,0.53454 -5.99699,0.49836 -8.8072147,-0.54673 -1.2100189,-0.54302 -1.630881,-3.01377 0.1369431,-3.00189 1.9505056,0.21478 4.2622816,-0.94225 4.2958596,-3.12435 0.2726,-2.70325 -1.442627,-4.96064 -3.014284,-6.94945 -0.741852,-1.65742 0.01683,-3.6143 0.674894,-5.17798 1.057108,-1.63066 2.818574,-2.46624 4.626073,-2.95744 2.622319,-0.87963 4.282053,-3.54846 4.120679,-6.27869 -0.0795,-1.0337 0.1725,-2.31292 1.487249,-2.35076 0.178662,-0.0323 0.360495,-0.0486 0.542084,-0.0455 z m 87.137831,4.56974 c 1.1772,-0.006 1.20905,1.30678 0.59221,2.01849 -1.2292,2.85188 -2.24408,6.3258 -0.88676,9.30641 2.38537,3.64831 6.38994,5.82083 9.1953,9.11313 1.34913,1.6213 2.837,3.56138 2.86184,5.74746 -1.33162,2.25204 -4.11993,4.41545 -6.84351,3.25355 -1.87053,-0.88734 -3.75807,-1.9241 -5.9109,-1.79254 -2.82675,-0.22999 -6.55658,0.26172 -8.45618,-2.36329 -0.930011,-1.96755 -0.72515,-4.37436 0.47646,-6.18256 0.44443,-0.91594 -0.767322,-1.23747 -1.367879,-0.73174 -1.908863,0.20962 -2.581566,2.14729 -3.159495,3.67936 -0.285343,0.79957 -1.549382,1.36306 -2.101165,0.91777 0.458002,-1.19607 2.596602,-1.18881 2.57452,-2.75487 0.160814,-1.40192 -1.158309,-3.42726 -2.708362,-2.72128 -0.909064,1.00663 -3.30958,0.46815 -2.929538,-1.05678 1.747615,-1.37506 4.200887,-1.33871 6.152597,-2.36523 3.552072,-1.45248 7.394742,-3.69273 8.388122,-7.69617 0.64003,-1.76151 0.2558,-3.89214 1.25935,-5.47719 0.83092,-0.55945 1.85826,-0.8974 2.86339,-0.89452 z m -22.413616,23.41253 c 1.236062,0.23355 1.045255,1.73868 0.09922,2.20348 -1.024856,1.17215 -2.353516,-0.54249 -1.741498,-1.5751 0.433266,-0.36621 1.087469,-0.53838 1.642279,-0.62838 z"
         id="path4653"
         inkscape:connector-curvature="0" />
    </g>
    <path
       style="opacity:1;vector-effect:none;fill:#1f4c08;fill-opacity:1;stroke:#000000;stroke-width:0.5;stroke-linecap:butt;stroke-linejoin:miter;stroke-miterlimit:4;stroke-dasharray:none;stroke-dashoffset:0;stroke-opacity:1"
       d="m 12.640751,277.8095 c 1.008118,-1.07893 3.09592,-0.49437 3.96875,0.94494 1.108356,1.11525 1.222563,3.51298 2.645834,4.7247 0.988299,1.10287 1.19644,1.44532 2.645833,2.07887 1.262505,1.21932 1.888888,0.7738 3.212798,1.88988 1.650143,0.77375 3.364496,1.02395 5.10268,1.51191 1.466786,1.49967 3.295408,1.68562 5.198692,2.07362 1.797666,0.43863 3.024588,1.74204 4.628687,2.65108 1.058515,0.85757 2.384574,1.79431 2.834823,2.45684 1.424153,0.44098 2.580219,1.09336 4.157736,1.13393 1.170046,-0.0495 2.296949,-0.004 3.212799,0.56697 1.2029,-0.0623 2.000373,0.63556 2.645833,1.5119 -0.481992,1.14931 0.479738,2.33063 0.478608,3.58632 0.651459,1.11617 0.508736,1.66298 -0.667596,2.08329 -1.394193,0.89026 -3.066831,1.0717 -4.535714,1.70093 -0.979857,0.19873 -1.870955,0.56691 -2.662536,0.84351 -0.973778,0.60089 -3.566899,0.89546 -4.701691,-0.47574 -0.800888,-0.37614 -1.646788,-1.16636 -2.317848,-1.19374 -0.860505,-0.98547 -1.855298,-1.47749 -3.169115,-1.63088 -1.410785,-0.42657 -2.848725,-0.0213 -4.310449,0 -1.414858,-0.0944 -2.940277,0.2622 -4.194274,-0.35551 -0.918572,-0.70052 -1.765713,-0.84904 -2.548131,-1.91598 -1.359822,-0.70992 -1.928329,-2.77288 -2.932265,-3.39815 -0.949958,-0.98874 -1.962018,-1.50481 -2.267857,-2.83482 -0.587525,-0.64564 -1.299336,-1.72716 -1.889882,-2.64583 -0.592888,-0.76716 -1.447668,-1.527 -2.078868,-2.26786 -1.232003,-1.31583 -2.882833,-2.0656 -4.346726,-2.83482 -1.5342397,-0.37797 -2.3567264,-1.40129 -3.4091284,-2.06014 -1.0682433,-0.99048 -1.9731985,-1.84056 -2.449503,-2.85355 -1.0700297,-1.83809 -2.1937499,-3.63042 -2.834821,-5.57515 -0.2964615,-1.26763 -0.6583299,-2.63223 -0.5669647,-4.04701 -0.00732,-1.12435 -0.020443,-2.41833 0.4724705,-3.22907 0.5571939,-0.24394 0.6701003,-0.88 0.8504462,-1.51187 0.3686614,-0.98396 1.8210942,-0.94093 2.4568449,0 0.476383,0.0964 0.9111505,1.34031 1.149558,1.41323 0.4638037,0.93573 0.646236,1.63986 0.5513344,2.80463 -0.1159311,1.46844 0.8520974,2.49325 1.3229167,3.71964 0.2057287,1.32554 1.9855344,1.60674 3.2127984,1.70089 0.273485,-0.13737 0.654791,-0.36448 1.133927,-0.56696 z"
       id="path4701"
       inkscape:connector-curvature="0" />
    <path
       style="opacity:1;vector-effect:none;fill:#1f4c08;fill-opacity:1;stroke:#000000;stroke-width:0.5;stroke-linecap:butt;stroke-linejoin:miter;stroke-miterlimit:4;stroke-dasharray:none;stroke-dashoffset:0;stroke-opacity:1"
       d="m 59.887775,246.0595 c -0.63113,0.80532 -0.305113,1.72183 -0.755952,2.26786 0.0067,1.24121 -0.817875,1.55417 -0.755951,2.83482 -0.532756,0.8014 -0.668183,1.88242 -0.76076,3.0193 -0.166998,0.48455 -0.236341,1.09221 -0.184181,1.80896 -0.05428,0.57849 0.180692,1.42803 -0.283484,1.59737 -0.280905,0.4326 -0.610397,0.73917 -1.039433,1.32288 -0.418321,0.40389 -0.478826,1.35094 -1.511906,1.13393 -0.856972,0.61887 -2.026959,0.61525 -2.84367,1.12163 -0.396049,0.23371 -0.618798,0.65722 -0.972365,1.3617 -0.09933,0.65002 -0.740936,1.6187 -0.908666,2.61935 -0.494131,0.82784 -0.915466,1.72271 -1.322917,2.83482 -0.06809,0.60946 -0.548558,0.77628 -0.377976,1.88988 -0.377244,1.09415 -0.685918,2.22375 -1.322916,3.2128 -0.15156,0.8956 -1.578992,1.11166 -1.675836,1.99476 -0.417009,0.36147 -0.747169,0.59842 -1.347973,1.02905 -0.451794,0.54737 -1.724213,1.05716 -2.645834,1.32291 -1.040118,0.42112 -2.765715,-0.009 -3.401787,0.94494 -0.474149,0.10765 -0.651298,0.85245 -0.566963,1.78374 -0.03405,0.90328 0.226862,1.73483 0.651079,2.39906 0.453421,0.24282 1.523747,0.24925 1.886562,0.76056 0.806558,0.22054 1.314107,0.54059 1.913935,0.72629 0.798997,0.0288 1.705524,-0.10289 2.371401,0.17566 0.445903,0.61477 0.539687,0.67698 1.30351,1.33624 0.217921,0.69663 0.890285,0.97952 1.826457,0.94494 0.84009,-0.002 1.680804,0.003 2.520269,0 1.030858,-1.13512 1.165154,-1.01722 1.700895,-2.26786 0.0427,-1.13138 0.776997,-1.72012 0.72629,-2.943 0.384514,-0.47911 0.710385,-0.95377 1.269155,-1.69335 0.220125,-0.81352 1.336789,-1.30122 0.839375,-1.97823 -0.04329,-0.81525 -0.743555,-0.70978 -0.736945,-1.81826 -0.28071,0.0583 -0.594453,-1.57519 -0.95167,-2.15934 -0.407819,-0.85117 -0.390122,-1.54485 -0.957219,-2.07002 0.01077,-1.35336 -0.982401,-2.91683 0,-4.15774 0.161413,-0.58967 0.278645,-1.28112 0.755952,-1.70089 -0.06491,-1.37957 1.216029,-1.1716 2.564949,-1.51149 0.632685,-0.30889 1.749137,-0.35791 2.348743,-0.75637 0.364979,-0.23113 1.029598,-0.44259 1.417411,-0.75591 0.750346,-0.24426 0.864896,-0.45452 1.322914,-0.94498 0.215036,-0.96002 0.701393,-1.35478 1.228424,-1.70089 0.279661,-0.86509 0.647906,-1.34176 0.755954,-2.07887 0.511178,-0.47503 0.70539,-1.91191 1.329055,-2.35791 0.519075,-0.59913 0.8203,-1.71844 1.316778,-1.79983 -0.02117,-0.59323 0.535586,-0.6651 0.755948,-1.03942 0.399634,-0.54382 0.981606,-1.26073 1.316781,-2.08329 0.323962,-0.38999 0.686,-0.84831 0.737034,-1.32889 0.590774,-0.6385 0.924494,-1.85099 0.781009,-2.91893 -0.617264,-0.33308 -0.762421,-1.69299 -1.700893,-1.60639 -0.5998,-0.22569 -1.719909,-0.0431 -1.88988,0.47246 -0.333405,0.73018 -0.471529,1.96834 -0.94494,2.83482 -0.711119,0.39733 -1.485484,0.0149 -1.883742,-0.66587 -0.208992,-0.61948 -0.319512,-1.89228 -1.323348,-1.49824 0.05922,0.28751 -0.493912,-0.002 -0.572673,0.0852 z"
       id="path4709"
       inkscape:connector-curvature="0" />
    <path
       id="path4717"
       style="opacity:1;vector-effect:none;fill:#1f4c08;fill-opacity:1;stroke:#000000;stroke-width:0.5;stroke-linecap:butt;stroke-linejoin:miter;stroke-miterlimit:4;stroke-dasharray:none;stroke-dashoffset:0;stroke-opacity:1"
       d="m 68.517168,153.24088 c -0.415499,0.16505 -0.773316,0.13364 -1.202714,0.13364 -0.133633,0 -0.267268,0 -0.400902,0 -0.08909,0 -0.18084,0.0216 -0.267271,0 -0.09663,-0.0242 -0.169598,-0.1141 -0.267269,-0.13364 -0.2184,-0.0437 -0.44545,0 -0.668173,0 -0.133636,0 -0.267269,0 -0.400905,0 -0.133636,0 -0.269864,-0.0262 -0.400905,0 -0.241871,-0.0805 -0.248536,0.21648 -0.400904,0.26727 -0.08452,0.0282 -0.182751,-0.0282 -0.267269,0 -0.119526,0.0398 -0.154578,0.21093 -0.267269,0.26727 -0.03984,0.0199 -0.102137,-0.0315 -0.133636,0 -0.0315,0.0315 0.0315,0.10214 0,0.13364 -0.0315,0.0315 -0.108926,-0.0371 -0.133635,0 -0.156274,0.23441 -0.141277,0.54982 -0.267269,0.8018 -0.02817,0.0564 -0.113713,0.0739 -0.133633,0.13364 -0.02817,0.0845 0,0.17818 0,0.26727 0,0.13363 0,0.26727 0,0.4009 0,0.0891 -0.02162,0.18084 0,0.26727 0.02416,0.0966 0.109476,0.17064 0.133633,0.26727 0.04321,0.17286 -0.04322,0.36168 0,0.53454 0.09689,0.38757 0.104259,0.15639 0.267269,0.40091 0.05525,0.0829 0.07838,0.18439 0.133635,0.26727 0.03494,0.0524 0.08909,0.0891 0.133636,0.13363 0.08909,0.0891 0.178178,0.17818 0.267269,0.26727 0.04454,0.0445 0.08122,0.0987 0.133636,0.13363 0.08288,0.0553 0.18439,0.0784 0.267269,0.13364 0.05242,0.0349 0.08122,0.0987 0.133635,0.13363 0.165754,0.11051 0.368784,0.15677 0.534538,0.26727 0.05242,0.035 0.08122,0.0987 0.133636,0.13364 0.165753,0.1105 0.368784,0.15677 0.534537,0.26727 0.05242,0.0349 0.07387,0.11371 0.133636,0.13363 0.08452,0.0282 0.182751,-0.0282 0.267269,0 0.05976,0.0199 0.08909,0.0891 0.133636,0.13364 0.08909,0.0891 0.178178,0.17818 0.267269,0.26727 0.222723,0.22272 0.44545,0.44545 0.668173,0.66817 0.08909,0.0891 0.168886,0.18856 0.267269,0.26727 0.203121,0.16249 0.598691,0.37204 0.801809,0.53454 0.196768,0.15741 0.337773,0.37712 0.534541,0.53454 0.125412,0.10033 0.267268,0.17818 0.400901,0.26727 0.133636,0.0891 0.257252,0.19544 0.400905,0.26727 0.125992,0.063 0.274913,0.0706 0.400905,0.13363 0.143653,0.0718 0.263183,0.18464 0.400904,0.26727 0.08541,0.0512 0.181859,0.0824 0.267269,0.13364 0.275442,0.16526 0.514504,0.39088 0.801809,0.53454 0.125992,0.063 0.270116,0.0813 0.400905,0.13363 0.09248,0.037 0.174789,0.0966 0.267269,0.13363 0.192505,0.077 0.48909,0.13296 0.668173,0.26727 0.100796,0.0756 0.15458,0.21093 0.267272,0.26727 0.07968,0.0399 0.179908,-0.0175 0.267269,0 0.138128,0.0276 0.270115,0.0813 0.400904,0.13364 0.757132,0.37856 -0.199213,-0.0498 0.534538,0.13363 0.09663,0.0242 0.170638,0.10948 0.267271,0.13364 0.08643,0.0216 0.179909,-0.0175 0.267269,0 0.138129,0.0276 0.261956,0.11047 0.400905,0.13363 0.131815,0.022 0.267269,0 0.400904,0 0.267269,0 0.534538,0 0.801807,0 0.267271,0 0.53454,0 0.801809,0 0.133636,0 0.272413,0.0367 0.400905,0 0.191545,-0.0547 0.345551,-0.20427 0.534537,-0.26727 0.08452,-0.0282 0.184553,0.0331 0.267272,0 0.149122,-0.0597 0.257252,-0.19544 0.400905,-0.26727 0.125991,-0.063 0.27491,-0.0706 0.400904,-0.13363 0.143653,-0.0718 0.263181,-0.18464 0.400902,-0.26727 0.08541,-0.0512 0.181859,-0.0824 0.267272,-0.13364 0.137721,-0.0826 0.261456,-0.18758 0.400904,-0.26726 0.172964,-0.0988 0.35636,-0.17818 0.534538,-0.26727 0.08909,-0.0445 0.187584,-0.0739 0.267269,-0.13364 0.100795,-0.0756 0.168886,-0.18856 0.267271,-0.26727 0.125413,-0.10033 0.287335,-0.1537 0.400902,-0.26727 0.11357,-0.11357 0.153702,-0.28733 0.267272,-0.4009 0.113567,-0.11357 0.287335,-0.1537 0.400904,-0.26727 0.07043,-0.0704 0.07387,-0.18759 0.133633,-0.26727 0.199684,-0.26625 0.320038,-0.21107 0.400905,-0.53454 0.02162,-0.0864 -0.02817,-0.18275 0,-0.26727 0.01992,-0.0598 0.113713,-0.0739 0.133636,-0.13363 0.02817,-0.0845 0,-0.17818 0,-0.26727 0,-0.0446 0,-0.0891 0,-0.13364 0,-0.0445 0.0315,-0.10214 0,-0.13363 -0.0315,-0.0315 -0.102137,0.0315 -0.133636,0 -0.0315,-0.0315 0.01992,-0.0938 0,-0.13364 -0.02817,-0.0563 -0.08909,-0.0891 -0.133636,-0.13363 -0.152897,-0.1529 -0.186364,-0.1582 -0.267269,-0.40091 -0.15916,-0.47748 0.517396,0.55051 -0.133633,-0.53454 -0.06482,-0.10803 -0.202448,-0.15923 -0.267271,-0.26727 -0.07247,-0.12079 -0.06116,-0.28011 -0.133633,-0.4009 -0.06482,-0.10804 -0.202449,-0.15923 -0.267272,-0.26727 -0.269507,-0.44918 0.0032,-0.30759 -0.267269,-0.66817 -0.289004,-0.38534 -0.193077,-0.17327 -0.534537,-0.40091 -0.05242,-0.0349 -0.08324,-0.0958 -0.133636,-0.13363 -0.128487,-0.0964 -0.272418,-0.17091 -0.400905,-0.26727 -0.05039,-0.0378 -0.08909,-0.0891 -0.133633,-0.13364 -0.08909,-0.0891 -0.166476,-0.19167 -0.267271,-0.26727 -0.159369,-0.11952 -0.363718,-0.16477 -0.534538,-0.26727 -1.477671,-0.98511 0.359132,0.21548 -0.668173,-0.4009 -0.137721,-0.0826 -0.257252,-0.19544 -0.400905,-0.26727 -0.125992,-0.063 -0.274913,-0.0706 -0.400905,-0.13363 -0.143653,-0.0718 -0.253283,-0.20401 -0.400904,-0.26727 -0.168812,-0.0724 -0.357942,-0.0832 -0.534541,-0.13364 -0.135442,-0.0387 -0.270115,-0.0813 -0.400902,-0.13363 -0.09248,-0.037 -0.1696,-0.1141 -0.267271,-0.13364 -0.133924,-0.0268 -0.627795,0 -0.801807,0 -0.445449,0 -0.890899,0 -1.336349,0 -0.311814,0 -0.623628,0 -0.935442,0 -0.08909,0 -0.178181,0 -0.267269,0 -0.08909,0 -0.182753,-0.0282 -0.267272,0 -0.05976,0.0199 -0.08909,0.0891 -0.133633,0.13364 -0.08909,0.0445 -0.170638,0.10947 -0.267269,0.13363 -0.08643,0.0216 -0.178181,0 -0.267271,0 -0.222724,0 -0.445447,0 -0.668174,0 -0.05283,0 -0.6111,0.0285 -0.668173,0 -0.05635,-0.0282 -0.07729,-0.10546 -0.133636,-0.13363 -0.03984,-0.0199 -0.102137,0.0315 -0.133633,0 -0.0315,-0.0315 0.03984,-0.11372 0,-0.13364 -0.07968,-0.0398 -0.187587,0.0398 -0.267271,0 -0.03984,-0.0199 0.0315,-0.10214 0,-0.13363 -0.063,-0.063 -0.182751,0.0282 -0.267269,0 -0.967973,-0.32266 0.21069,0.0385 -0.400905,-0.26727 -0.03984,-0.0199 -0.08909,0 -0.133633,0 -0.08909,0 -0.182753,0.0282 -0.267272,0 -0.05976,-0.0199 -0.07729,-0.10546 -0.133633,-0.13364 -0.03984,-0.0199 -0.08909,0 -0.133635,0 -0.04455,0 -0.08909,0 -0.133633,0 -0.178181,0 -0.35636,0 -0.534541,0 z"
       inkscape:connector-curvature="0" />
    <path
       id="path4727"
       style="opacity:1;vector-effect:none;fill:#1f4c08;fill-opacity:1;stroke:#000000;stroke-width:0.5;stroke-linecap:butt;stroke-linejoin:miter;stroke-miterlimit:4;stroke-dasharray:none;stroke-dashoffset:0;stroke-opacity:1"
       d="m 20.27502,161.79351 c -0.489995,0 -0.97999,0 -1.469982,0 -0.178181,0 -0.357736,-0.0221 -0.534541,0 -0.182245,0.0228 -0.356359,0.0891 -0.534537,0.13363 -0.178181,0.0445 -0.35636,0.0891 -0.534541,0.13364 -0.178178,0.0445 -0.362569,0.0691 -0.534538,0.13363 -0.186528,0.07 -0.372435,0.15148 -0.53454,0.26727 -0.30757,0.21969 -0.511439,0.55983 -0.801809,0.80181 -0.123383,0.10282 -0.287335,0.1537 -0.400902,0.26727 -0.07043,0.0704 -0.08239,0.18186 -0.133636,0.26727 -0.08263,0.13772 -0.184637,0.26318 -0.267269,0.4009 -0.05125,0.0854 -0.08909,0.17818 -0.133635,0.26727 -0.154057,0.30812 -0.316339,0.59718 -0.400905,0.93545 -0.01079,0.0432 0.01079,0.0904 0,0.13363 -0.03416,0.13666 -0.106008,0.26278 -0.133633,0.4009 -0.01746,0.0874 0,0.17818 0,0.26727 0,0.13364 0,0.26727 0,0.40091 0,0.13897 -0.02627,0.69669 0,0.80181 0.02416,0.0966 0.08909,0.17818 0.133633,0.26727 0.08909,0.17818 0.178181,0.35636 0.267269,0.53454 0.133636,0.26727 0.267271,0.53453 0.400904,0.8018 0.04455,0.0891 0.07387,0.18759 0.133636,0.26727 0.07559,0.1008 0.202446,0.15924 0.267269,0.26727 0.07248,0.12079 0.06116,0.28012 0.133636,0.40091 0.06482,0.10803 0.191675,0.16647 0.267269,0.26727 0.292682,0.39024 -0.06671,0.18383 0.400904,0.53454 0.07968,0.0598 0.196837,0.0632 0.267269,0.13363 0.07043,0.0704 0.0632,0.19684 0.133636,0.26727 0.682924,0.68292 -0.186386,-0.56033 0.534538,0.40091 0.115472,0.15396 0.29184,0.69274 0.400904,0.8018 0.07043,0.0704 0.212019,0.0508 0.267269,0.13364 0.04942,0.0741 -0.03984,0.18758 0,0.26727 0.435097,0.87019 0.133929,-0.26639 0.400905,0.53454 0.02673,0.0802 0,0.56154 0,0.66817 0,0.0746 0.0204,0.607 0,0.66817 -0.01992,0.0598 -0.113713,0.0739 -0.133633,0.13364 -0.02817,0.0845 0,0.17818 0,0.26727 0,0.0891 0,0.17818 0,0.26727 0,0.12546 -0.02553,0.5916 0,0.66817 0.01992,0.0598 0.113712,0.0739 0.133633,0.13364 0.02817,0.0845 -0.02817,0.18275 0,0.26727 0.01992,0.0598 0.09869,0.0812 0.133635,0.13363 0.05525,0.0829 0.09664,0.17479 0.133636,0.26727 0.05231,0.13079 0.04912,0.28821 0.133633,0.4009 0.05976,0.0797 0.187587,0.0739 0.267269,0.13364 0.270163,0.20262 0.264321,0.26137 0.400905,0.53454 0.04454,0.0891 0.05076,0.21202 0.133635,0.26727 0.07413,0.0494 0.193144,-0.0494 0.267269,0 0.08288,0.0553 0.05076,0.21202 0.133636,0.26727 0.400905,0.26727 0.133633,-0.13364 0.400905,0 0.05635,0.0282 0.07252,0.11835 0.133633,0.13363 0.129646,0.0324 0.267271,0 0.400904,0 0.267269,0 0.534541,0 0.80181,0 0.222723,0 0.445449,0 0.668173,0 0.04454,0 0.102137,0.0315 0.133636,0 0.0315,-0.0315 0,-0.0891 0,-0.13363 0,-0.44545 0,-0.8909 0,-1.33635 0,-0.13363 0.02196,-0.26909 0,-0.4009 -0.02315,-0.13895 -0.08909,-0.26727 -0.133636,-0.40091 -0.04454,-0.13363 -0.07814,-0.27143 -0.133633,-0.4009 -0.07848,-0.18311 -0.204274,-0.34555 -0.267272,-0.53454 -0.02817,-0.0845 0.02817,-0.18275 0,-0.26727 -0.06299,-0.18899 -0.188796,-0.35144 -0.267268,-0.53454 -0.05549,-0.12947 -0.08132,-0.27012 -0.133636,-0.4009 -0.03699,-0.0925 -0.09664,-0.17479 -0.133633,-0.26728 -0.104632,-0.26157 -0.189873,-0.53092 -0.267272,-0.8018 -0.05046,-0.1766 -0.07555,-0.3603 -0.133633,-0.53454 -0.0315,-0.0945 -0.109477,-0.17064 -0.133636,-0.26727 -0.02162,-0.0864 0.02162,-0.18084 0,-0.26727 -0.02416,-0.0966 -0.109476,-0.17064 -0.133633,-0.26727 -0.02162,-0.0864 0,-0.17818 0,-0.26727 0,-0.0891 0,-0.17818 0,-0.26727 0,-0.0891 0,-0.17818 0,-0.26727 0,-0.0445 -0.01408,-0.0914 0,-0.13363 0.0315,-0.0945 0.102135,-0.17278 0.133633,-0.26727 0.01408,-0.0423 -0.01408,-0.0914 0,-0.13364 0.0315,-0.0945 0.08909,-0.17818 0.133636,-0.26727 0.04454,-0.0891 0.0632,-0.19684 0.133633,-0.26727 0.07043,-0.0704 0.212019,-0.0508 0.267272,-0.13363 0.04942,-0.0741 -0.04942,-0.19314 0,-0.26727 0.05525,-0.0829 0.196836,-0.0632 0.267269,-0.13364 0.07043,-0.0704 0.07387,-0.18758 0.133635,-0.26727 0.0099,-0.0132 0.463053,-0.48688 0.534538,-0.53453 0.08288,-0.0553 0.184393,-0.0784 0.267269,-0.13364 0.05242,-0.0349 0.08122,-0.0987 0.133636,-0.13363 0.235047,-0.1567 0.396523,-0.15861 0.668173,-0.26727 0.184962,-0.074 0.349578,-0.19329 0.53454,-0.26727 0.130789,-0.0523 0.270116,-0.0813 0.400905,-0.13364 0.09248,-0.037 0.169598,-0.1141 0.267269,-0.13363 0.13104,-0.0262 0.269864,0.0262 0.400904,0 0.09767,-0.0195 0.169598,-0.1141 0.267269,-0.13364 0.13104,-0.0262 0.269087,0.022 0.400905,0 0.138946,-0.0232 0.262776,-0.10601 0.400904,-0.13363 0.08736,-0.0175 0.180841,0.0216 0.267269,0 0.193263,-0.0483 0.341276,-0.21896 0.534538,-0.26727 0.886423,0 -0.188987,0.063 0.400905,-0.13364 0.08452,-0.0282 0.18084,0.0216 0.267271,0 0.645314,-0.16133 -0.0066,-0.0635 0.400902,-0.26727 0.03984,-0.0199 0.0938,0.0199 0.133636,0 0.05635,-0.0282 0.07729,-0.10546 0.133636,-0.13363 0.03984,-0.0199 0.09657,0.0247 0.133633,0 0.104833,-0.0699 0.15458,-0.21093 0.267271,-0.26727 0.07969,-0.0398 0.182751,0.0282 0.267269,0 0.05976,-0.0199 0.08909,-0.0891 0.133636,-0.13364 0.133633,-0.13363 0.249713,-0.28751 0.400902,-0.4009 0.07968,-0.0598 0.187587,-0.0739 0.267271,-0.13363 0.100793,-0.0756 0.166476,-0.19168 0.267269,-0.26727 0.216382,-0.16229 0.264657,-0.0629 0.400905,-0.26727 0.05525,-0.0829 0.07387,-0.18759 0.133633,-0.26727 0.0756,-0.1008 0.210926,-0.15458 0.267271,-0.26727 0.03984,-0.0797 -0.03984,-0.18759 0,-0.26727 0.05635,-0.11269 0.210923,-0.15458 0.267269,-0.26727 0.03984,-0.0797 -0.02817,-0.18275 0,-0.26727 0.01992,-0.0598 0.09869,-0.0812 0.133636,-0.13364 0.05525,-0.0829 0.07838,-0.18439 0.133633,-0.26727 0.03494,-0.0524 0.113715,-0.0739 0.133636,-0.13363 0.02817,-0.0845 -0.02817,-0.18275 0,-0.26727 0.01992,-0.0598 0.09869,-0.0812 0.133633,-0.13363 0.29442,-0.0673 0.07064,-0.27492 0.133636,-0.40091 0.111394,-0.22279 0.267268,-0.0604 0.267268,-0.4009 0,-0.0445 -0.01992,-0.0938 0,-0.13364 0.02817,-0.0563 0.09869,-0.0812 0.133636,-0.13363 0.05525,-0.0829 0.07838,-0.1844 0.133636,-0.26727 0.03494,-0.0524 0.113713,-0.0739 0.133633,-0.13364 0.02817,-0.0845 -0.04942,-0.19314 0,-0.26727 0.109149,-0.16372 0.332478,-0.062 0.400905,-0.26727 0.02817,-0.0845 -0.03984,-0.18758 0,-0.26727 0.133635,-0.26726 0.267268,-0.20045 0.400904,-0.4009 0.05525,-0.0829 0.07838,-0.18439 0.133636,-0.26727 0.03494,-0.0524 0.08909,-0.0891 0.133633,-0.13363 0.08909,-0.0891 0.159232,-0.20245 0.267269,-0.26727 0.12079,-0.0725 0.274913,-0.0706 0.400904,-0.13364 0.143653,-0.0718 0.263184,-0.18464 0.400905,-0.26727 0.255479,-0.15328 0.54633,-0.24762 0.801809,-0.4009 0.806302,-0.48378 0.05723,-0.0954 0.668174,-0.40091 0.08909,-0.0445 0.178181,-0.0891 0.267269,-0.13363 0.08909,-0.0446 0.196839,-0.0632 0.267271,-0.13364 0.07043,-0.0704 0.05076,-0.21201 0.133633,-0.26727 0.07413,-0.0494 0.187587,0.0399 0.267272,0 0.267269,-0.13363 0.200451,-0.26726 0.400902,-0.4009 0.04765,-0.32828 0.283699,-0.0555 0.400904,-0.13363 0.104833,-0.0699 0.15458,-0.21093 0.267272,-0.26727 0.07968,-0.0399 0.18275,0.0282 0.267269,0 0.05976,-0.0199 0.08122,-0.0987 0.133633,-0.13364 0.165753,-0.1105 0.375171,-0.14774 0.53454,-0.26727 0.100793,-0.0756 0.154578,-0.21092 0.267269,-0.26727 0.07968,-0.0398 0.179911,0.0175 0.267269,0 0.275222,-0.055 0.430601,-0.14848 0.668176,-0.26727 0.344733,-0.17236 0.703709,-0.27911 1.069078,-0.4009 0.534538,-0.17818 1.069078,-0.35636 1.603616,-0.53454 0.133635,-0.0446 0.270115,-0.0813 0.400904,-0.13364 0.334992,-0.13399 0.570656,-0.3097 0.935443,-0.4009 0.219424,-0.0549 0.124687,0.14258 0.400904,-0.13363 0.0315,-0.0315 -0.0315,-0.10214 0,-0.13364 0.063,-0.063 0.204274,0.063 0.267272,0 0.0315,-0.0315 0.0315,-0.10214 0,-0.13363 -0.0315,-0.0315 -0.102137,0.0315 -0.133636,0 -0.07043,-0.0704 -0.05395,-0.20751 -0.133636,-0.26727 -0.112689,-0.0845 -0.280114,-0.0612 -0.400904,-0.13364 -0.543867,-0.32632 0.0084,-0.21992 -0.534538,-0.4009 -0.120272,-0.0401 -0.280633,0.0401 -0.400905,0 -0.05976,-0.0199 -0.07729,-0.10546 -0.133636,-0.13364 -0.04067,-0.0203 -0.340719,0 -0.400904,0 -0.445447,0 -0.890897,0 -1.336347,0 -0.400905,0 -0.801809,0 -1.202711,0 -0.08909,0 -0.178181,0 -0.267272,0 -0.08909,0 -0.18084,-0.0216 -0.267269,0 -0.09663,0.0242 -0.170637,0.10948 -0.267268,0.13364 -0.172861,0.0432 -0.36168,-0.0432 -0.534541,0 -0.193262,0.0483 -0.345551,0.20427 -0.534537,0.26727 -0.126778,0.0423 -0.271259,-0.0324 -0.400905,0 -0.193262,0.0483 -0.341275,0.21895 -0.53454,0.26727 -0.08643,0.0216 -0.187585,-0.0398 -0.267269,0 -0.112692,0.0563 -0.159232,0.20244 -0.267269,0.26727 -0.12079,0.0725 -0.270116,0.0813 -0.400905,0.13363 -0.09248,0.037 -0.174789,0.0966 -0.267269,0.13364 -0.130788,0.0523 -0.280114,0.0612 -0.400904,0.13363 -0.108037,0.0648 -0.159232,0.20245 -0.267269,0.26727 -0.12079,0.0725 -0.274913,0.0706 -0.400905,0.13363 -0.143652,0.0718 -0.257251,0.19545 -0.400904,0.26727 -0.125992,0.063 -0.274913,0.0706 -0.400905,0.13364 -0.287306,0.14365 -0.522914,0.37517 -0.801809,0.53454 -0.172963,0.0988 -0.372433,0.15148 -0.534538,0.26727 -0.766238,0.54731 -0.08211,0.21574 -0.668173,0.80181 -0.11357,0.11356 -0.267272,0.17818 -0.400905,0.26727 -0.133635,0.0891 -0.267271,0.17818 -0.400904,0.26727 -0.08909,0.0891 -0.166476,0.19167 -0.267269,0.26726 -0.07969,0.0598 -0.187587,0.0739 -0.267272,0.13364 -0.201586,0.15119 -0.332951,0.38335 -0.534537,0.53454 -0.07969,0.0598 -0.184394,0.0784 -0.267269,0.13363 -0.05242,0.035 -0.08122,0.0987 -0.133636,0.13364 -0.08288,0.0553 -0.184393,0.0784 -0.267269,0.13363 -0.05242,0.0349 -0.08122,0.0987 -0.133636,0.13364 -0.08287,0.0553 -0.178178,0.0891 -0.267268,0.13363 -0.178181,0.0891 -0.35636,0.17818 -0.534541,0.26727 -0.178178,0.0891 -0.345551,0.20428 -0.534537,0.26727 -0.04226,0.0141 -0.09379,-0.0199 -0.133636,0 -0.112692,0.0564 -0.162438,0.19738 -0.267269,0.26727 0.01521,0.25316 -0.311814,0.0891 -0.400905,0.13364 -0.05635,0.0282 -0.07387,0.11371 -0.133635,0.13363 -0.08452,0.0282 -0.182751,-0.0282 -0.267269,0 -0.05976,0.0199 -0.08909,0.0891 -0.133636,0.13364 -0.08909,0.0445 -0.170638,0.10947 -0.267269,0.13363 -0.08643,0.0216 -0.18084,-0.0216 -0.267269,0 -0.09663,0.0242 -0.174789,0.0966 -0.267269,0.13363 -0.825664,0.33027 -0.04138,-0.0461 -0.668173,0.26727 -0.08909,0.0446 -0.178181,0.0891 -0.267271,0.13364 -0.08909,0.0445 -0.170638,0.10948 -0.267269,0.13363 -0.608344,0 -0.0076,-0.063 -0.400905,0.13364 -0.03984,0.0199 -0.09379,-0.0199 -0.133633,0 -0.05635,0.0282 -0.07729,0.10546 -0.133636,0.13363 -0.07968,0.0399 -0.187584,-0.0398 -0.267269,0 -0.05635,0.0282 -0.07729,0.10547 -0.133635,0.13364 -0.03984,0.0199 -0.09379,-0.0199 -0.133636,0 -0.05634,0.0282 -0.07729,0.10546 -0.133633,0.13363 -0.07969,0.0398 -0.204274,-0.063 -0.267269,0 -0.0315,0.0315 0,0.0891 0,0.13364 -0.08909,0.0445 -0.172776,0.10213 -0.267272,0.13363 -0.04226,0.0141 -0.08909,0 -0.133633,0 -0.04454,0.0445 -0.07729,0.10546 -0.133635,0.13364 -0.03984,0.0199 -0.102138,-0.0315 -0.133636,0 -0.0315,0.0315 0.0315,0.10213 0,0.13363 -0.03657,0.0366 -0.462042,-0.0362 -0.534538,0 -0.05635,0.0282 -0.07729,0.10546 -0.133636,0.13364 -0.03984,0.0199 -0.09379,-0.0199 -0.133633,0 -0.05635,0.0282 -0.07729,0.10546 -0.133635,0.13363 -0.03984,0.0199 -0.09379,-0.0199 -0.133636,0 -0.05635,0.0282 -0.07729,0.10546 -0.133633,0.13364 -0.03984,0.0199 -0.08909,0 -0.133636,0 -0.04454,0 -0.102137,0.0315 -0.133636,0 -0.157488,-0.15749 -0.267269,-0.35636 -0.400902,-0.53454 z"
       inkscape:connector-curvature="0" />
    <path
       id="path4735"
       style="opacity:1;vector-effect:none;fill:#1f4c08;fill-opacity:1;stroke:#000000;stroke-width:0.5;stroke-linecap:butt;stroke-linejoin:miter;stroke-miterlimit:4;stroke-dasharray:none;stroke-dashoffset:0;stroke-opacity:1"
       d="m -3.1110643,181.30418 c -1.480517,1.18442 -0.123154,-0.0122 -0.9354434,0.93545 -0.163989,0.19132 -0.3705497,0.34321 -0.534539,0.53453 -0.2090457,0.24389 -0.3338756,0.55099 -0.534539,0.80181 -0.078707,0.0984 -0.1885627,0.16889 -0.2672694,0.26727 -0.2006634,0.25083 -0.3563593,0.53454 -0.534539,0.80181 -0.1568725,0.23531 -0.2981738,0.41135 -0.4009043,0.66817 -0.1618076,0.40452 -0.1336347,0.31122 -0.1336347,0.66818 0,0.13363 0.026207,0.26986 0,0.4009 -0.019534,0.0977 -0.1141008,0.1696 -0.133635,0.26727 -0.026207,0.13104 0,0.26727 0,0.40091 0,0.13363 -0.042259,0.27413 0,0.4009 0.050789,0.15237 0.1846368,0.26318 0.2672697,0.4009 0.051247,0.0854 0.071411,0.1895 0.1336346,0.26728 0.1783094,0.22288 0.6976483,0.68291 0.9354434,0.8018 0.1642734,0.0821 0.3625697,0.0692 0.534539,0.13364 1.3976252,0.52411 -0.3029974,0.0579 1.0690781,0.4009 0.1781797,0.0445 0.3552491,0.0938 0.534539,0.13364 0.2217267,0.0493 0.4526944,0.0618 0.668174,0.13363 0.1889879,0.063 0.3429928,0.21254 0.534539,0.26727 0.128493,0.0367 0.2672694,0 0.4009043,0 0.1336347,0 0.2672694,0 0.4009041,0 0.31181464,0 0.623629,0 0.93544337,0 0.08908997,0 0.18275167,0.0282 0.26726964,0 0.09449409,-0.0315 0.17478825,-0.0966 0.26726938,-0.13363 0.13078857,-0.0523 0.26726965,-0.0891 0.40090434,-0.13364 0.13363495,-0.0445 0.28011487,-0.0612 0.40090437,-0.13363 0.1080373,-0.0648 0.1688861,-0.18856 0.2672696,-0.26727 0.1254144,-0.10033 0.2754897,-0.16694 0.4009041,-0.26727 0.1967666,-0.15742 0.3563596,-0.35636 0.5345393,-0.53454 0.08909,-0.0891 0.1916742,-0.16648 0.2672693,-0.26727 0.059763,-0.0797 0.082388,-0.18186 0.1336347,-0.26727 0.082633,-0.13772 0.1846371,-0.26318 0.2672697,-0.4009 0.1024932,-0.17083 0.1781797,-0.35636 0.2672694,-0.53454 0.08909,-0.17818 0.1932844,-0.34958 0.2672691,-0.53454 0.052316,-0.13079 0.049117,-0.28822 0.1336357,-0.40091 0.059764,-0.0797 0.1968368,-0.0632 0.2672689,-0.13363 0.070432,-0.0704 0.089091,-0.17818 0.1336357,-0.26727 0.4844653,-0.96893 -0.1408641,0.2113 0.2672689,-0.40091 0.05525,-0.0829 0.073872,-0.18758 0.1336357,-0.26726 0.075594,-0.1008 0.1781784,-0.17818 0.2672689,-0.26727 0.044545,-0.0446 0.081219,-0.0987 0.1336331,-0.13364 0.082878,-0.0553 0.1875869,-0.0739 0.2672715,-0.13363 0.084661,-0.0635 0.7383118,-0.71715 0.8018065,-0.80181 0.059764,-0.0797 0.078385,-0.18439 0.1336358,-0.26727 0.1048332,-0.15725 0.2875121,-0.24971 0.4009046,-0.40091 0.059764,-0.0797 0.073872,-0.18758 0.1336357,-0.26727 0.075594,-0.10079 0.202446,-0.15923 0.2672689,-0.26727 0.6519598,-1.0866 -0.2736004,0.14314 0.2672688,-0.66817 0.3841962,-0.57629 -0.2238348,0.69322 0.2672689,-0.53454 0.036994,-0.0925 0.1141015,-0.1696 0.1336357,-0.26727 0.026194,-0.13104 0,-0.26727 0,-0.4009 0,-0.13364 0,-0.26727 0,-0.4009 0,-0.17819 0,-0.35636 0,-0.53454 0,-0.0891 0.021617,-0.18084 0,-0.26727 -0.024156,-0.0966 -0.08909,-0.17818 -0.1336357,-0.26727 -0.044543,-0.0891 -0.078383,-0.1844 -0.1336331,-0.26727 -0.034944,-0.0524 -0.08909,-0.0891 -0.1336358,-0.13364 -0.089091,-0.0891 -0.1624383,-0.19738 -0.2672688,-0.26727 -0.037063,-0.0247 -0.091376,0.0141 -0.1336358,0 -0.094493,-0.0315 -0.1706377,-0.10948 -0.2672688,-0.13363 -0.093631,-0.0234 -0.7534222,0 -0.8018092,0 -0.4454499,0 -0.8908971,0 -1.3363469,0 -0.4009046,0 -0.8018092,0 -1.202713,0 -0.2672694,0 -0.5356365,-0.0242 -0.8018084,0 -0.2262026,0.0206 -0.4454494,0.0891 -0.668174,0.13363 -0.84827057,0.16966 -0.44782,0.0786 -1.20271275,0.26727 -1.1616547,0.29041 -0.0825701,-0.0204 -0.80180867,0.26727 -0.1307883,0.0523 -0.28821353,0.0491 -0.40090434,0.13364 -0.0796843,0.0598 -0.0507579,0.21201 -0.13363469,0.26727 -0.0741272,0.0494 -0.18275145,-0.0282 -0.26726965,0 -0.059763,0.0199 -0.08909,0.0891 -0.1336347,0.13363 -0.044545,0.0445 -0.08909,0.0891 -0.1336347,0.13364 -0.4432107,0.44321 0.125992,-0.063 -0.2672696,0.13363 -0.1603616,0.0802 -0.2405425,0.32072 -0.4009041,0.40091 -0.039842,0.0199 -0.08909,0 -0.1336349,0 -0.044545,0.0445 -0.077289,0.10546 -0.1336347,0.13363 -0.039842,0.0199 -0.1021369,-0.0315 -0.1336347,0 -0.031498,0.0315 0.031498,0.10214 0,0.13363 -0.031498,0.0315 -0.1021369,-0.0315 -0.133635,0 -0.031498,0.0315 0.031498,0.10214 0,0.13364 -0.031498,0.0315 -0.1021365,-0.0315 -0.1336347,0 -0.031498,0.0315 0.031498,0.10213 0,0.13363 -0.031498,0.0315 -0.08909,0 -0.1336347,0 -0.08909,0.17818 -0.1781796,0.35636 -0.2672696,0.53454 z"
       inkscape:connector-curvature="0" />
    <path
       style="opacity:1;vector-effect:none;fill:#1f4c08;fill-opacity:1;stroke:#000000;stroke-width:0.5;stroke-linecap:butt;stroke-linejoin:miter;stroke-miterlimit:4;stroke-dasharray:none;stroke-dashoffset:0;stroke-opacity:1"
       d="m 103.00776,264.85137 c -2.40475,0.30875 -4.09234,2.37336 -4.76296,4.46443 -0.90988,1.94469 -3.061771,2.89292 -5.264348,2.73355 -1.712622,0.0749 -3.33974,-0.10535 -4.949027,-0.5669 -1.114593,0.22002 -3.332604,-0.68954 -2.848655,1.15441 0.456784,2.02792 1.171455,3.14685 2.281763,5.08238 0.370937,1.10345 1.014489,3.24108 0.945163,5.33879 -0.0294,1.837 0.183983,3.71343 -0.56741,5.43317 -0.230344,2.65815 -2.342329,4.73731 -4.913394,5.10304 -2.000504,0.37414 -4.247767,0.55328 -6.236827,1.32292 -2.252736,0.2017 -4.466289,1.63538 -6.422353,2.04128 -1.887175,0.70971 -3.916801,1.03636 -4.538737,3.06125 -0.251626,1.04391 -0.167292,2.13107 -0.378272,3.14197 -0.171593,1.39199 0.200777,2.46786 1.512054,3.09486 0.900209,0.78858 2.175145,1.08527 3.212724,1.51154 1.465036,0.0213 2.188031,0.99602 3.685228,0.75602 1.587021,-0.0512 3.516504,0.19381 4.724715,-0.38695 0.347506,-0.42137 2.209328,-1.20628 2.874121,-0.36081 2.414345,0.74284 4.79484,0.75898 7.12268,-0.60052 14.976515,-5.95422 28.109005,-16.45635 37.344895,-29.64543 -0.0575,-2.07587 0.11428,-4.2034 -0.0895,-6.24927 -1.13666,-1.88867 -1.76384,-2.83042 -3.50154,-3.95631 -1.16345,-0.575 -2.58492,-1.54853 -3.96875,-2.07842 -1.04656,0.14707 -1.86791,-0.26731 -2.88157,-0.18914 -1.47608,0.7784 -3.38414,-0.16555 -5.2018,0.20053 -1.96734,-0.41056 -4.02069,0.003 -5.99554,-0.40141 -0.39429,0.0324 -0.78867,-0.007 -1.1827,-0.005 z"
       id="path884-2"
       inkscape:connector-curvature="0" />
  </g>
</svg>
