<?xml version="1.0" encoding="UTF-8" standalone="no"?>
<!-- Created with Inkscape (http://www.inkscape.org/) -->

<svg
   xmlns:dc="http://purl.org/dc/elements/1.1/"
   xmlns:cc="http://creativecommons.org/ns#"
   xmlns:rdf="http://www.w3.org/1999/02/22-rdf-syntax-ns#"
   xmlns:svg="http://www.w3.org/2000/svg"
   xmlns="http://www.w3.org/2000/svg"
   xmlns:sodipodi="http://sodipodi.sourceforge.net/DTD/sodipodi-0.dtd"
   xmlns:inkscape="http://www.inkscape.org/namespaces/inkscape"
   width="171.14644mm"
   height="170.95152mm"
   viewBox="0 0 171.14644 170.95152"
   version="1.1"
   id="svg8"
   inkscape:version="0.92.2 5c3e80d, 2017-08-06"
   sodipodi:docname="green_0.svg">
  <defs
     id="defs2" />
  <sodipodi:namedview
     id="base"
     pagecolor="#ffffff"
     bordercolor="#666666"
     borderopacity="1.0"
     inkscape:pageopacity="0.0"
     inkscape:pageshadow="2"
     inkscape:zoom="0.7"
     inkscape:cx="356.31215"
     inkscape:cy="358.21593"
     inkscape:document-units="mm"
     inkscape:current-layer="layer1"
     showgrid="false"
     inkscape:window-width="1366"
     inkscape:window-height="714"
     inkscape:window-x="0"
     inkscape:window-y="0"
     inkscape:window-maximized="1" />
  <metadata
     id="metadata5">
    <rdf:RDF>
      <cc:Work
         rdf:about="">
        <dc:format>image/svg+xml</dc:format>
        <dc:type
           rdf:resource="http://purl.org/dc/dcmitype/StillImage" />
        <dc:title></dc:title>
      </cc:Work>
    </rdf:RDF>
  </metadata>
  <g
     inkscape:label="Layer 1"
     inkscape:groupmode="layer"
     id="layer1"
     transform="translate(25.294481,-146.20324)">
    <g
       id="g918">
      <path
         style="opacity:1;fill:#031c73;fill-opacity:1;stroke:none;stroke-width:3.77952766;stroke-miterlimit:4;stroke-dasharray:none;stroke-opacity:1;paint-order:fill markers stroke"
         d="m 348.63439,558.19272 c -31.79126,-6.80658 -33.48305,-7.42919 -39.61217,-14.57823 -4.37008,-5.09728 -2.51068,-8.11345 5.02476,-8.15073 l 2.78824,-0.0137 -3.7984,-5.72079 c -3.42761,-5.16235 -3.79838,-6.37027 -3.79838,-12.37436 0,-8.74251 2.34999,-12.20243 17.19761,-25.32027 16.5389,-14.61209 21.10182,-22.55375 18.77391,-32.67562 -4.01836,-17.47205 1.56287,-33.9097 19.60979,-57.75417 16.39689,-21.66437 18.31364,-24.22742 18.98248,-25.38308 0.37651,-0.65057 -1.02661,-2.25519 -3.27043,-3.74008 -8.27937,-5.47903 -7.64322,-11.81583 2.89859,-28.87283 8.60208,-13.91845 10.50425,-18.61336 10.52073,-25.96715 0.0122,-5.4493 -0.39941,-6.75675 -3.4755,-11.03921 -1.99194,-2.77312 -5.39264,-5.86427 -7.92443,-7.20312 -16.75977,-8.86278 -41.58122,7.51536 -43.26976,28.55104 -0.59236,7.37955 0.8161,12.33377 5.30711,18.66776 l 3.27031,4.61233 -1.86248,3.63033 c -2.7006,5.26402 -6.74236,8.14889 -10.39367,7.41863 -3.469,-0.6938 -7.03599,-3.28547 -18.96236,-13.77744 -9.98917,-8.78781 -14.05749,-11.04192 -19.92894,-11.04192 -3.46741,0 -4.72909,0.61578 -7.76135,3.78807 l -3.62088,3.78808 -0.3664,16.16244 c -0.20386,8.99309 -1.0167,19.07498 -1.83246,22.72843 -3.14467,14.08378 -10.28718,25.15734 -20.1982,31.31473 -3.50393,2.17688 -5.69577,4.2403 -5.70368,5.3695 -0.0288,4.11451 -7.36803,17.10503 -16.55571,29.30391 -9.60066,12.7472 -12.88792,18.07674 -15.14559,24.55512 l -1.14151,3.27554 -11.61675,-6.62696 c -37.59082,-21.44427 -56.00234,-27.0394 -75.9509,-23.08096 l -8.75379,1.73703 -6.89259,-3.63037 c -9.67927,-5.09814 -17.5156,-12.48244 -31.475544,-29.6599 C 76.897123,400.73588 68.017237,391.61462 59.730758,385.70492 52.532548,380.57134 43.052267,370.38237 37.527337,361.8417 27.923701,346.996 14.8903,316.33808 14.004991,306.51108 c -0.613987,-6.81531 1.221096,-12.48757 4.039965,-12.48757 5.131283,0 17.161631,14.27528 20.499585,24.32491 1.815997,5.46745 3.505401,6.52104 3.514181,2.1916 0.01914,-9.43715 5.332271,-16.05393 21.197047,-26.39803 21.02088,-13.70595 26.048447,-20.52471 24.934035,-33.81742 -0.470185,-5.60836 -0.218873,-7.69124 1.283256,-10.63565 2.566219,-5.03021 10.85536,-12.59861 22.28055,-20.34324 13.66467,-9.26269 20.6883,-16.46068 21.98236,-22.52809 1.35961,-6.37485 0.0663,-11.82238 -4.59765,-19.36517 -3.47484,-5.61973 -3.74355,-6.6124 -3.69135,-13.63706 0.0634,-8.54097 2.32646,-14.82373 7.0041,-19.44544 5.82295,-5.7533 12.2045,-2.60803 16.89096,8.32505 1.0732,2.50369 3.07885,6.03049 4.457,7.83733 12.94607,16.97317 42.739,-1.10621 44.59617,-27.06247 0.42252,-5.90534 0.12182,-7.57439 -2.29202,-12.72197 -5.0574,-10.78504 -5.17898,-17.93862 -0.40799,-24.00396 2.76921,-3.52049 7.70258,-5.95781 21.9819,-10.860114 6.46761,-2.220431 13.61559,-5.115481 15.8844,-6.433446 5.02294,-2.917859 11.25365,-9.632592 12.11212,-13.053036 0.34713,-1.383058 1.52493,-2.79833 2.61735,-3.145048 1.09241,-0.34672 4.91548,-2.635852 8.49569,-5.086962 3.58021,-2.451109 6.73129,-4.456563 7.0024,-4.456563 0.2711,0 2.65317,1.520333 5.29349,3.378517 2.64031,1.858183 8.8387,5.789176 13.77423,8.735541 10.94485,6.533766 15.63785,10.544314 17.47016,14.92966 1.2194,2.918413 1.18541,3.776624 -0.27113,6.846052 -2.22957,4.698459 -7.04249,8.657589 -9.83504,8.090339 -6.40454,-1.30094 -15.50616,-1.51815 -23.98838,-0.57247 -20.14169,2.24558 -30.20681,8.50585 -30.22335,18.79824 -0.0113,7.04385 1.69423,10.26897 6.57149,12.42641 2.39973,1.06151 5.11766,3.08157 6.03985,4.48901 1.53946,2.3495 1.54578,2.83272 0.0773,5.90286 -0.87968,1.83914 -5.90156,8.06838 -11.15973,13.84277 -10.45647,11.48305 -13.25684,16.73891 -12.38438,23.24356 0.72079,5.3739 -0.98524,7.88449 -12.60685,18.55215 -10.9019,10.00704 -13.03382,13.50423 -10.54647,17.3004 0.87635,1.33747 3.77144,3.23247 6.43354,4.21109 2.66209,0.97864 7.56759,2.94648 10.90109,4.37299 5.07058,2.16987 7.62894,2.59688 15.65736,2.6134 8.9537,0.0184 10.10388,-0.22321 17.1726,-3.60749 4.16688,-1.99497 13.41926,-8.0266 20.56084,-13.40362 7.14159,-5.37702 14.909,-10.90412 17.26091,-12.28243 l 4.27618,-2.50601 -1.32917,-8.8391 c -2.36885,-15.753 -1.65995,-22.39465 2.91117,-27.27438 1.72604,-1.84257 3.21997,-2.27284 7.89138,-2.27284 5.45716,0 5.82911,-0.16135 7.02445,-3.04715 1.69928,-4.10243 0.67397,-9.50654 -2.62404,-13.83044 -1.4925,-1.95678 -6.74176,-6.50319 -11.66501,-10.10313 -4.92325,-3.59994 -8.95136,-7.12907 -8.95136,-7.84251 0,-1.78758 4.01679,-3.21422 14.34944,-5.09646 10.315,-1.87902 17.79331,-0.9837 27.34654,3.274 7.9703,3.55221 11.8421,8.0945 11.8421,13.89279 0,5.24643 1.34871,6.48861 4.24693,3.91149 3.22153,-2.8646 5.80783,-9.42393 5.83241,-14.79208 0.0175,-3.81443 -0.50487,-5.3712 -2.45728,-7.32361 -1.36371,-1.3637 -3.5814,-2.47946 -4.92821,-2.47946 -2.89471,0 -5.30174,-4.63855 -4.20317,-8.09985 2.43109,-7.65966 26.73485,-7.93231 38.12735,-0.42772 5.45105,3.59077 5.2371,7.08038 -0.75761,12.35714 -2.50013,2.2007 -4.54569,4.47354 -4.54569,5.05076 0,2.11823 9.4621,9.29632 15.00371,11.38204 4.05302,1.52546 7.14799,2.01155 10.69097,1.6791 8.59968,-0.80692 10.28949,-5.37774 6.63995,-17.96051 -1.81534,-6.25891 -0.8124,-9.31412 5.11494,-15.58142 8.83786,-9.344731 23.0755,-15.17131 30.82363,-12.614194 4.27356,1.410401 6.89547,6.370346 6.25726,11.837044 l -0.39951,3.42208 7.1287,-0.65052 c 22.67696,-2.06934 42.39647,9.34007 52.4358,30.33855 2.11857,4.43126 4.71792,9.64783 5.7763,11.59238 13.91111,25.55828 16.1102,29.10366 22.03516,35.52503 l 6.44849,6.98876 -2.34209,2.49304 c -1.28815,1.37117 -4.11436,2.97026 -6.28048,3.55353 -7.08715,1.90837 -12.2878,-0.18935 -29.02315,-11.7067 -13.22649,-9.10254 -15.45552,-10.23358 -23.95728,-12.1562 -10.16898,-2.29965 -9.80595,-2.34837 -10.37849,1.39266 l -0.51449,3.36168 -1.82488,-3.10915 c -2.4045,-4.09669 -5.7505,-4.09711 -9.19701,-0.001 -4.92435,5.85226 -2.88308,10.84404 5.11526,12.50893 3.67871,0.76573 3.44268,0.27681 10.01637,20.7486 7.63515,23.77738 13.25951,34.06464 20.73878,37.93232 6.56313,3.39393 19.15557,0.32628 20.49028,-4.99164 0.34452,-1.37264 2.15668,-4.11828 4.02704,-6.10143 2.79262,-2.96104 4.11974,-3.60574 7.42251,-3.60574 10.85682,0 22.8408,15.82753 22.9454,30.30457 0.0303,4.19897 -0.55411,7.74138 -1.62122,9.82645 -0.91777,1.79324 -1.43613,4.14969 -1.1519,5.23656 1.12561,4.30435 -2.00003,9.53096 -11.80087,19.73305 -5.41014,5.63163 -10.57918,11.6753 -11.48676,13.43036 -3.28528,6.35305 -1.59427,13.74082 4.27577,18.68013 6.13662,5.16362 26.80497,4.46493 51.12504,-1.72827 7.23506,-1.84244 13.8868,-3.64854 14.78166,-4.01356 3.4953,-1.42579 6.38139,9.96545 3.77905,14.91567 -0.63796,1.21354 -5.38944,6.62762 -10.55882,12.0313 -6.6934,6.99673 -9.75507,11.01364 -10.63623,13.95468 -1.83541,6.12604 0.2865,23.55507 5.23126,42.96895 8.01854,31.48198 6.28503,39.16505 -9.15254,40.56488 -5.93259,0.53795 -6.58981,0.34409 -18.97648,-5.5976 -16.50956,-7.91938 -28.34261,-11.36785 -39.14511,-11.40794 -4.49188,-0.0167 -9.50018,0.29151 -11.12954,0.68484 -9.23904,2.23034 -19.82834,10.76902 -24.66724,19.89044 -2.29374,4.32375 -2.81146,4.69672 -7.39446,5.32705 -20.75713,2.85483 -39.81402,-9.77559 -37.76777,-25.03152 l 0.54258,-4.04523 -4.45126,0.50172 c -10.53236,1.18716 -24.61748,11.89644 -34.54985,26.26916 -4.47828,6.48033 -16.00691,26.36777 -21.80726,37.61859 -3.12088,6.0535 -2.96246,16.62471 0.34621,23.10326 3.3196,6.49991 10.84207,13.117 19.44145,17.10156 l 6.97468,3.23174 -0.62926,4.54568 c -0.34608,2.50013 -1.08474,5.99305 -1.64144,7.76205 -1.31939,4.19251 -7.81385,10.00194 -12.6973,11.358 -6.53028,1.81336 -22.05563,1.16439 -34.16414,-1.42806 z M 532.36495,407.95244 c 4.74233,-1.40117 14.3079,-10.23802 15.28157,-14.1174 0.91468,-3.64438 -2.8559,-12.53108 -8.48993,-20.00948 -2.72064,-3.61129 -10.33565,-11.18383 -16.92222,-16.82786 -20.38835,-17.47077 -22.58433,-20.55227 -22.56161,-31.65946 0.0128,-6.27381 2.49571,-16.22508 5.55409,-22.26049 2.92379,-5.76981 2.31478,-8.40641 -2.35308,-10.18742 -3.49737,-1.3344 -12.97534,1.69072 -15.00915,4.79053 -0.77301,1.17817 -1.8638,6.17581 -2.42399,11.10587 -1.27026,11.17907 -4.33551,18.10016 -10.80876,24.40531 -6.31374,6.14976 -21.05053,13.54718 -33.56853,16.85034 -10.32605,2.72476 -13.68572,5.13817 -12.56252,9.02423 1.51255,5.23303 8.15417,7.27886 13.10314,4.03617 2.28799,-1.49914 2.69074,-1.49977 4.96802,-0.008 3.12065,2.04474 4.52925,8.19653 2.37097,10.35481 -0.80821,0.80823 -3.02541,2.24615 -4.92708,3.1954 -2.48028,1.23806 -3.54795,2.51112 -3.77723,4.50382 -0.30025,2.60939 -0.0811,2.77792 3.61198,2.77792 4.79818,0 7.6346,-2.66639 9.8958,-9.30264 1.6693,-4.89915 3.69369,-7.24187 7.0149,-8.11796 1.11117,-0.29311 2.83221,-0.86672 3.82456,-1.27469 1.525,-0.62695 1.39558,0.0198 -0.83625,4.17854 -2.27111,4.23201 -2.59317,5.9101 -2.30223,11.99583 0.42678,8.92688 2.97501,12.87693 10.54189,16.34116 4.5602,2.08773 7.47004,2.53995 19.71213,3.06353 14.11652,0.60374 14.49312,0.68051 22.01562,4.48778 8.15337,4.12654 11.87214,4.65577 18.64791,2.6538 z m -328.06084,-3.3029 c 5.77333,-2.41226 11.64063,-7.66238 13.6568,-12.22026 1.71878,-3.88558 1.74807,-4.57875 0.35985,-8.51339 -3.51986,-9.97634 -1.43862,-16.1094 10.50154,-30.94617 7.49559,-9.31397 10.21053,-16.22877 10.21053,-26.00556 0,-5.83879 -1.20667,-8.87928 -5.70032,-14.36319 -2.93319,-3.57956 -6.27686,-5.7483 -16.90815,-10.96677 -15.72713,-7.71981 -28.92219,-16.02809 -29.60552,-18.64112 -0.56919,-2.17661 -8.38255,-6.60515 -13.2562,-7.51349 -4.49971,-0.83865 -10.07105,1.54701 -10.71398,4.58776 -0.27207,1.28668 -0.652,5.2941 -0.84431,8.9054 -0.56626,10.6334 -6.44674,17.26769 -18.38086,20.73703 -4.4886,1.30487 -7.10349,2.88771 -10.68137,6.46558 -4.20874,4.20874 -4.93197,5.6109 -6.47767,12.55852 -2.06885,9.29905 -1.52926,11.58242 4.39814,18.61197 4.76778,5.6543 7.15499,11.77166 7.15499,18.33502 0,7.14148 -4.6054,11.17515 -12.75907,11.17515 -4.83409,0 -7.15972,1.45697 -7.93102,4.96863 -0.90116,4.103 1.83016,8.99365 5.9945,10.73363 7.31582,3.05674 24.38848,3.9923 33.47311,1.83428 2.75734,-0.65499 5.01496,-7.78552 7.03747,-22.22733 0.84471,-6.03162 1.74634,-11.95673 2.00361,-13.16692 0.60318,-2.83732 11.38113,-9.44684 16.53105,-10.1376 5.30261,-0.71122 7.30871,0.66561 10.68084,7.33051 3.4824,6.88285 4.22094,13.62452 2.67448,24.41412 -1.9732,13.76705 -2.36261,22.55242 -1.06874,24.11144 1.53358,1.84784 5.12677,1.82281 9.6503,-0.0673 z m 214.45837,-12.22595 c 4.02675,-3.38828 4.2359,-7.71088 0.49181,-10.1641 -2.3856,-1.5631 -2.9865,-1.57969 -6.81853,-0.18819 -3.75637,1.36402 -4.23528,1.9126 -4.51246,5.16887 -0.22306,2.62053 0.27305,4.22603 1.76777,5.72074 2.77002,2.77002 5.32039,2.61895 9.07141,-0.53732 z m 24.32117,-77.23386 c 6.31551,-3.2413 8.53761,-11.56388 5.6967,-21.33625 -2.31434,-7.96103 -6.63947,-13.2581 -16.6073,-20.33924 -4.83306,-3.4334 -11.19058,-8.69196 -14.12783,-11.68566 -2.93725,-2.99372 -5.5497,-5.23389 -5.80544,-4.97815 -0.25573,0.25574 0.25298,2.57203 1.13046,5.14732 1.12255,3.29449 4.27198,7.56445 10.62562,14.40606 9.34818,10.06616 10.88614,12.32182 13.48036,19.77105 2.16491,6.21646 2.08892,6.50797 -2.98096,11.43532 -4.96773,4.82808 -5.12992,6.88425 -0.66864,8.4766 2.67025,0.95307 6.34625,0.59686 9.25703,-0.89705 z M 336.77129,292.65318 c 2.36463,-0.86619 6.05704,-2.98741 8.20533,-4.71382 2.27772,-1.83042 8.52258,-4.74412 14.98045,-6.9895 21.5161,-7.48108 22.89562,-9.25269 18.43939,-23.68026 -2.16497,-7.00935 -8.50474,-17.05232 -21.42398,-33.93817 -10.2899,-13.44922 -16.49115,-16.47921 -25.78188,-12.59729 -11.26969,4.70878 -11.11021,11.67194 0.54725,23.89357 3.70339,3.88263 5.08438,5.9608 4.1518,6.24785 -0.76857,0.23656 -4.3521,0.99445 -7.96339,1.68421 -9.85453,1.88222 -21.69874,6.45987 -27.24116,10.52837 -8.71913,6.40043 -12.85455,19.61322 -8.67086,27.70361 2.86026,5.53112 10.93377,11.30715 18.45406,13.20256 5.353,1.34917 21.15862,0.54328 26.30299,-1.34113 z M 180.97343,234.26761 c 6.61527,-5.80828 8.06906,-9.92631 7.96844,-22.57153 -0.12366,-15.53937 -3.51741,-24.74874 -9.12017,-24.74874 -1.2812,0 -3.29778,1.02278 -4.48128,2.27285 -1.8003,1.90156 -2.0591,3.08137 -1.58425,7.22237 0.55742,4.86121 0.48622,5.02113 -3.99069,8.96185 -6.16008,5.42232 -8.8776,10.90918 -8.95646,18.08372 -0.0966,8.78423 4.60783,13.91951 12.78128,13.95195 2.78372,0.011 4.69045,-0.80826 7.38313,-3.17247 z m 244.11075,0.66314 c 0.8782,-1.92744 0.8326,-3.8477 -0.19284,-8.12225 -1.76523,-7.35832 -3.03258,-9.01605 -6.27138,-8.20316 -2.99635,0.75204 -5.26826,5.41789 -5.12358,10.52232 0.20118,7.09747 8.99215,11.49993 11.5878,5.80309 z m -24.41503,-20.96183 c 2.7637,-4.5309 3.49219,-9.29725 1.97925,-12.94979 -1.38085,-3.33368 -14.95722,-17.64952 -19.36336,-20.41803 -4.20612,-2.64283 -10.29227,-0.10779 -11.97384,4.9874 -2.06786,6.26571 1.8793,13.12021 8.98085,15.59582 2.38408,0.83109 4.66887,3.19428 8.32108,8.60663 5.91294,8.7626 8.67558,9.71998 12.05602,4.17797 z M 201.09484,187.73273 c 0.86487,-1.23478 1.5725,-3.63526 1.5725,-5.33438 0,-2.50114 -0.57379,-3.30588 -3.01378,-4.22688 -6.10251,-2.30344 -10.72462,5.13899 -6.07759,9.78602 2.64933,2.64933 5.56686,2.56212 7.51887,-0.22476 z M 465.81208,145.4398 c 0.55559,0.009 3.05571,0.30524 5.55584,0.65767 7.85515,1.10732 12.1063,-4.15252 8.95183,-11.07584 -1.17496,-2.57876 -2.35739,-3.01441 -11.47721,-4.22861 -6.05263,-0.80584 -8.5863,-1.98621 -8.5863,-4.00014 0,-1.87134 -5.80893,-5.49663 -8.81555,-5.50168 -1.31093,-0.002 -2.96784,1.09247 -3.97105,2.62356 -1.43356,2.18789 -1.52458,3.14902 -0.5442,5.74634 0.95984,2.54291 0.90035,3.42503 -0.3221,4.77581 -0.82466,0.91125 -1.49939,2.36615 -1.49939,3.23313 0,4.69209 8.66965,9.29851 15.65737,8.31918 2.22233,-0.31146 4.49518,-0.5587 5.05076,-0.54942 z"
         id="path4653"
         inkscape:connector-curvature="0"
         transform="matrix(0.26458333,0,0,0.26458333,-22.889009,144.04839)" />
      <g
         id="g931"
         transform="translate(-2.2678571,1.5119048)"
         style="stroke-width:1.5;stroke-miterlimit:4;stroke-dasharray:none">
        <path
           style="fill:#143105;fill-opacity:1;stroke:#000000;stroke-width:1.5;stroke-linecap:butt;stroke-linejoin:miter;stroke-miterlimit:4;stroke-dasharray:none;stroke-opacity:1"
           d="m 98.462797,177.74851 c -3.190455,1.46773 1.42546,4.27711 4.157733,2.83482 2.69595,1.23857 4.96685,-0.10501 3.40179,-2.64583 -1.4993,-0.92428 -4.77978,-0.0424 -5.08935,-1.7203 -0.36825,-1.06068 -2.914574,-2.12748 -3.037138,-0.35857 -0.885699,0.34979 0.552546,1.46604 0.566965,1.88988 z M 31.56101,189.65476 c -3.304645,1.2108 0.924948,5.35674 1.322917,0.75595 -0.02875,-0.59055 -0.898839,-0.16966 -1.322917,-0.75595 z m -6.047617,6.61458 c -3.380695,1.63148 -5.247278,7.63699 -0.944941,8.88244 3.78185,0.54921 5.558003,-5.39307 4.535714,-8.31547 -0.06852,-1.88036 -1.331357,-6.70547 -3.401785,-3.77977 -0.845385,0.98979 0.580804,2.14936 -0.188988,3.2128 z m 63.122023,47.625 c -2.738498,0.25466 -0.438016,4.4003 1.511905,2.26786 1.600556,-1.48531 -0.152444,-3.20138 -1.511905,-2.26786 z m 14.741074,-4.91369 c -2.22151,2.06714 -2.57103,6.03274 -0.18899,7.9375 3.21949,2.63123 8.58709,0.22841 12.09524,2.45685 3.06603,2.62037 7.23431,0.63611 8.88244,-3.02381 -1.43082,-6.46552 -8.11137,-9.3964 -12.11139,-14.02431 -1.50337,-3.24376 -0.45219,-7.52942 0.96109,-10.16617 1.33158,-1.5068 -1.48072,-2.81999 -2.64583,-1.5119 -3.03003,-0.0888 -1.91451,4.02281 -2.64584,6.04762 -0.74156,2.73591 -2.72835,4.86971 -5.10268,6.04761 -2.44105,1.59753 -5.424984,2.51224 -8.693448,3.2128 -2.52227,1.32653 0.474384,4.01127 2.078868,2.45685 2.14417,-1.75929 4.15472,3.30647 1.322917,3.77976 -1.240671,0.31487 -2.430674,2.1979 0.188989,1.70089 2.028933,-0.8835 1.405879,-3.90693 3.212794,-4.53571 1.00817,0.12191 1.53491,-0.94952 2.64584,-0.37798 z M 88.635416,210.63244 c 0.747804,4.3758 6.274795,6.18838 6.803572,10.58333 1.976004,2.87535 -4.955169,3.81768 -0.377978,4.91369 5.48847,-0.76796 2.997557,-8.35616 -0.52852,-10.3559 -2.13944,-1.73359 -4.530731,-2.72217 -5.897074,-5.14112 z M 68.602677,206.4747 c -5.276679,0.94882 -13.181084,2.51529 -12.095237,9.63839 2.32123,4.79136 8.948253,5.11544 13.179688,3.08272 2.750166,-2.94325 7.500689,-2.41208 10.065847,-5.16159 0.337018,-4.86544 -3.574248,-8.52685 -6.047618,-12.09523 -1.520488,-2.43766 -3.968225,-5.03591 -6.992559,-3.2128 -4.020123,1.40717 0.211872,5.60775 1.889879,6.99256 h 0.188989 z m 20.78869,-5.10268 c -2.102802,4.22253 4.306972,5.59659 1.889882,0.56697 -0.01606,-1.50581 -0.966592,-2.24366 -1.889882,-0.56697 z m -9.260416,-11.1503 c -3.498613,0.15089 -2.897676,4.24958 -0.188987,5.29167 2.555955,0.098 3.533543,7.28435 5.480653,3.02381 1.901632,-3.35765 -2.065214,-4.81301 -3.401785,-6.99256 -0.469375,-0.58416 -1.041172,-0.639 -1.889881,-1.32292 z m -51.782736,26.83631 c -3.059412,-2.14577 -6.787251,-2.30666 -5.669644,2.19647 -0.357259,2.8216 -2.280508,4.79988 -5.027774,5.42772 -1.451658,0.13313 -4.331672,2.06167 -4.421631,4.47105 -1.521157,4.44969 0.883869,3.84121 2.267858,6.99256 1.201517,2.58264 1.466292,5.86541 -2.456846,6.4256 -3.013273,-0.9211 -3.2410654,2.9739 -0.566964,3.77976 2.497921,0.55479 5.981311,1.02505 8.693452,0.18899 1.351104,-2.98306 1.342382,-6.49611 1.889881,-9.6384 1.783115,-1.35415 6.106451,-4.18419 7.181547,-0.94494 2.925822,3.79282 0.474477,7.9038 0.755954,12.09524 -1.45108,4.37529 7.482661,-0.49529 6.047618,-3.59077 -2.128543,-4.46579 2.000194,-7.51427 4.346726,-10.77233 1.027832,-2.77656 1.76631,-6.18738 -0.377976,-8.12648 -1.723376,-2.5817 -5.142705,-2.75134 -7.559524,-4.53572 -1.805695,-1.0974 -4.04573,-2.22925 -4.913691,-3.40178 z m 33.833,-71.61058 c -37.226128,-0.4713 -72.483833,26.81514 -81.585782,62.87043 -9.439949,33.99025 5.01722,72.9796 34.619276,92.29842 28.59177,19.46854 69.162259,19.11179 96.984391,-1.67391 25.9591,-18.65826 39.9766,-52.60401 33.66677,-84.08963 -5.14844,-29.74718 -27.526,-55.45623 -56.183185,-64.90021 -8.824612,-3.03749 -18.163296,-4.62286 -27.50147,-4.5051 z m -12.806968,13.46119 c 2.929279,3.50656 15.157452,6.37347 7.446754,11.9565 -5.326642,-1.12936 -17.928859,-0.39174 -14.096476,7.12244 9.214773,2.99311 -5.80881,8.21877 -3.320701,13.94893 -0.737118,4.23627 -12.518642,8.02421 -2.835083,10.24499 8.893437,4.85338 14.76681,-4.61833 20.409183,-7.07461 0.01517,-1.54822 -3.308842,-11.95882 4.02662,-10.24066 4.075871,-6.07862 -13.260996,-9.03614 -2.008639,-10.56512 4.602841,-1.50264 11.620666,1.76298 10.878314,4.67779 -0.372852,4.53794 5.442212,-5.32442 -0.393809,-5.29056 -4.706022,-7.39316 18.859786,-3.76356 8.556567,1.991 2.258426,3.92778 11.714471,6.07363 7.782038,-1.74479 -0.579138,-4.95141 13.286246,-11.78324 11.988452,-3.00644 8.312333,-1.25399 14.038993,2.58478 16.807253,10.42352 2.90092,4.40733 3.89173,8.79861 8.30981,11.94887 -5.84676,6.7879 -11.69554,-5.1025 -18.12259,-4.40762 -2.79763,-2.59729 0.18882,4.482 -2.81302,-0.33477 -0.96215,-1.10391 -4.769077,3.765 0.57627,3.62133 2.31884,4.98416 4.18182,20.01275 12.03949,14.99979 3.15922,-9.16039 13.02159,2.05737 9.05599,8.39887 1.71591,5.33834 -11.5866,8.62394 -4.48689,14.475 6.24287,1.22705 13.07801,-0.9949 17.26265,-2.23542 4.90033,6.80478 -7.65451,7.62492 -4.74563,15.18065 -0.63097,6.32817 8.24782,19.94765 -3.67743,18.34494 -8.05794,-4.41237 -18.00999,-8.36394 -23.00655,2.13299 -5.03566,1.37962 -13.055867,-0.86462 -11.678151,-7.42208 -6.813489,0.39618 -11.556963,9.21577 -14.262619,14.78663 -4.700718,5.90874 -0.348245,11.29376 5.664695,13.17551 0.678307,11.75298 -13.979358,5.97496 -20.868666,4.7631 -2.372774,-1.02411 -6.41636,-5.08531 -1.097436,-4.75897 -7.278354,-9.19491 7.339448,-10.96144 7.952329,-18.92421 -3.072222,-9.45612 6.005912,-16.98586 10.013619,-23.2116 -7.492949,-3.99526 4.77415,-10.61015 2.392309,-17.11555 -4.889175,-9.55768 -19.699851,2.63183 -11.341623,10.50442 -4.313415,11.31697 -11.386395,-9.84495 -16.751826,-1.13381 0.26633,7.14561 0.288225,15.6391 -7.206121,19.23948 -1.276365,6.61161 -7.737414,10.0673 -8.826745,15.98221 -8.276827,-4.3753 -16.342448,-10.72633 -25.487667,-7.50594 C 4.7478331,258.80654 2.0585079,249.0809 -5.2208731,244.69848 -11.206505,240.27891 -14.676572,232.0626 -17.078286,224.73463 c -1.176246,-10.03492 6.228621,-1.60121 7.3135075,3.12439 -0.4961505,-8.7292 14.749049,-7.76246 11.9977373,-18.02458 2.1196596,-7.66579 18.0493482,-8.66841 10.4622822,-18.53423 -2.197269,-5.44315 3.43898,-13.91318 6.649116,-5.35891 4.084744,9.15759 16.506873,-2.97919 11.00177,-9.9472 -3.173752,-10.36099 12.074301,-5.94829 14.028858,-14.10281 1.961484,-0.53887 3.336504,-2.1049 4.999262,-2.98265 z"
           id="path884"
           inkscape:connector-curvature="0"
           sodipodi:nodetypes="ccccccccccccccccccccccccccccccccccccccccccccccccccccccccccccccccccccccccccccccccccccccccccccccccccccccccccccccccccccccccccccc" />
      </g>
    </g>
    <path
       style="opacity:1;vector-effect:none;fill:#1f4c08;fill-opacity:1;stroke:#000000;stroke-width:1.5;stroke-linecap:butt;stroke-linejoin:miter;stroke-miterlimit:4;stroke-dasharray:none;stroke-dashoffset:0;stroke-opacity:1"
       d="m 12.640751,277.8095 c 1.008118,-1.07893 3.09592,-0.49437 3.96875,0.94494 1.108356,1.11525 1.222563,3.51298 2.645834,4.7247 0.988299,1.10287 1.19644,1.44532 2.645833,2.07887 1.262505,1.21932 1.888888,0.7738 3.212798,1.88988 1.650143,0.77375 3.364496,1.02395 5.10268,1.51191 1.466786,1.49967 3.295408,1.68562 5.198692,2.07362 1.797666,0.43863 3.024588,1.74204 4.628687,2.65108 1.058515,0.85757 2.384574,1.79431 2.834823,2.45684 1.424153,0.44098 2.580219,1.09336 4.157736,1.13393 1.170046,-0.0495 2.296949,-0.004 3.212799,0.56697 1.2029,-0.0623 2.000373,0.63556 2.645833,1.5119 -0.481992,1.14931 0.479738,2.33063 0.478608,3.58632 0.651459,1.11617 0.508736,1.66298 -0.667596,2.08329 -1.394193,0.89026 -3.066831,1.0717 -4.535714,1.70093 -0.979857,0.19873 -1.870955,0.56691 -2.662536,0.84351 -0.973778,0.60089 -3.566899,0.89546 -4.701691,-0.47574 -0.800888,-0.37614 -1.646788,-1.16636 -2.317848,-1.19374 -0.860505,-0.98547 -1.855298,-1.47749 -3.169115,-1.63088 -1.410785,-0.42657 -2.848725,-0.0213 -4.310449,0 -1.414858,-0.0944 -2.940277,0.2622 -4.194274,-0.35551 -0.918572,-0.70052 -1.765713,-0.84904 -2.548131,-1.91598 -1.359822,-0.70992 -1.928329,-2.77288 -2.932265,-3.39815 -0.949958,-0.98874 -1.962018,-1.50481 -2.267857,-2.83482 -0.587525,-0.64564 -1.299336,-1.72716 -1.889882,-2.64583 -0.592888,-0.76716 -1.447668,-1.527 -2.078868,-2.26786 -1.232003,-1.31583 -2.882833,-2.0656 -4.346726,-2.83482 -1.5342397,-0.37797 -2.3567264,-1.40129 -3.4091284,-2.06014 -1.0682433,-0.99048 -1.9731985,-1.84056 -2.449503,-2.85355 -1.0700297,-1.83809 -2.1937499,-3.63042 -2.834821,-5.57515 -0.2964615,-1.26763 -0.6583299,-2.63223 -0.5669647,-4.04701 -0.00732,-1.12435 -0.020443,-2.41833 0.4724705,-3.22907 0.5571939,-0.24394 0.6701003,-0.88 0.8504462,-1.51187 0.3686614,-0.98396 1.8210942,-0.94093 2.4568449,0 0.476383,0.0964 0.9111505,1.34031 1.149558,1.41323 0.4638037,0.93573 0.646236,1.63986 0.5513344,2.80463 -0.1159311,1.46844 0.8520974,2.49325 1.3229167,3.71964 0.2057287,1.32554 1.9855344,1.60674 3.2127984,1.70089 0.273485,-0.13737 0.654791,-0.36448 1.133927,-0.56696 z"
       id="path4701"
       inkscape:connector-curvature="0" />
    <path
       style="opacity:1;vector-effect:none;fill:#1f4c08;fill-opacity:1;stroke:#000000;stroke-width:1.5;stroke-linecap:butt;stroke-linejoin:miter;stroke-miterlimit:4;stroke-dasharray:none;stroke-dashoffset:0;stroke-opacity:1"
       d="m 59.887775,246.0595 c -0.63113,0.80532 -0.305113,1.72183 -0.755952,2.26786 0.0067,1.24121 -0.817875,1.55417 -0.755951,2.83482 -0.532756,0.8014 -0.668183,1.88242 -0.76076,3.0193 -0.166998,0.48455 -0.236341,1.09221 -0.184181,1.80896 -0.05428,0.57849 0.180692,1.42803 -0.283484,1.59737 -0.280905,0.4326 -0.610397,0.73917 -1.039433,1.32288 -0.418321,0.40389 -0.478826,1.35094 -1.511906,1.13393 -0.856972,0.61887 -2.026959,0.61525 -2.84367,1.12163 -0.396049,0.23371 -0.618798,0.65722 -0.972365,1.3617 -0.09933,0.65002 -0.740936,1.6187 -0.908666,2.61935 -0.494131,0.82784 -0.915466,1.72271 -1.322917,2.83482 -0.06809,0.60946 -0.548558,0.77628 -0.377976,1.88988 -0.377244,1.09415 -0.685918,2.22375 -1.322916,3.2128 -0.15156,0.8956 -1.578992,1.11166 -1.675836,1.99476 -0.417009,0.36147 -0.747169,0.59842 -1.347973,1.02905 -0.451794,0.54737 -1.724213,1.05716 -2.645834,1.32291 -1.040118,0.42112 -2.765715,-0.009 -3.401787,0.94494 -0.474149,0.10765 -0.651298,0.85245 -0.566963,1.78374 -0.03405,0.90328 0.226862,1.73483 0.651079,2.39906 0.453421,0.24282 1.523747,0.24925 1.886562,0.76056 0.806558,0.22054 1.314107,0.54059 1.913935,0.72629 0.798997,0.0288 1.705524,-0.10289 2.371401,0.17566 0.445903,0.61477 0.539687,0.67698 1.30351,1.33624 0.217921,0.69663 0.890285,0.97952 1.826457,0.94494 0.84009,-0.002 1.680804,0.003 2.520269,0 1.030858,-1.13512 1.165154,-1.01722 1.700895,-2.26786 0.0427,-1.13138 0.776997,-1.72012 0.72629,-2.943 0.384514,-0.47911 0.710385,-0.95377 1.269155,-1.69335 0.220125,-0.81352 1.336789,-1.30122 0.839375,-1.97823 -0.04329,-0.81525 -0.743555,-0.70978 -0.736945,-1.81826 -0.28071,0.0583 -0.594453,-1.57519 -0.95167,-2.15934 -0.407819,-0.85117 -0.390122,-1.54485 -0.957219,-2.07002 0.01077,-1.35336 -0.982401,-2.91683 0,-4.15774 0.161413,-0.58967 0.278645,-1.28112 0.755952,-1.70089 -0.06491,-1.37957 1.216029,-1.1716 2.564949,-1.51149 0.632685,-0.30889 1.749137,-0.35791 2.348743,-0.75637 0.364979,-0.23113 1.029598,-0.44259 1.417411,-0.75591 0.750346,-0.24426 0.864896,-0.45452 1.322914,-0.94498 0.215036,-0.96002 0.701393,-1.35478 1.228424,-1.70089 0.279661,-0.86509 0.647906,-1.34176 0.755954,-2.07887 0.511178,-0.47503 0.70539,-1.91191 1.329055,-2.35791 0.519075,-0.59913 0.8203,-1.71844 1.316778,-1.79983 -0.02117,-0.59323 0.535586,-0.6651 0.755948,-1.03942 0.399634,-0.54382 0.981606,-1.26073 1.316781,-2.08329 0.323962,-0.38999 0.686,-0.84831 0.737034,-1.32889 0.590774,-0.6385 0.924494,-1.85099 0.781009,-2.91893 -0.617264,-0.33308 -0.762421,-1.69299 -1.700893,-1.60639 -0.5998,-0.22569 -1.719909,-0.0431 -1.88988,0.47246 -0.333405,0.73018 -0.471529,1.96834 -0.94494,2.83482 -0.711119,0.39733 -1.485484,0.0149 -1.883742,-0.66587 -0.208992,-0.61948 -0.319512,-1.89228 -1.323348,-1.49824 0.05922,0.28751 -0.493912,-0.002 -0.572673,0.0852 z"
       id="path4709"
       inkscape:connector-curvature="0" />
    <path
       id="path4717"
       style="opacity:1;vector-effect:none;fill:#1f4c08;fill-opacity:1;stroke:#000000;stroke-width:1.5;stroke-linecap:butt;stroke-linejoin:miter;stroke-miterlimit:4;stroke-dasharray:none;stroke-dashoffset:0;stroke-opacity:1"
       d="m 68.517168,153.24088 c -0.415499,0.16505 -0.773316,0.13364 -1.202714,0.13364 -0.133633,0 -0.267268,0 -0.400902,0 -0.08909,0 -0.18084,0.0216 -0.267271,0 -0.09663,-0.0242 -0.169598,-0.1141 -0.267269,-0.13364 -0.2184,-0.0437 -0.44545,0 -0.668173,0 -0.133636,0 -0.267269,0 -0.400905,0 -0.133636,0 -0.269864,-0.0262 -0.400905,0 -0.241871,-0.0805 -0.248536,0.21648 -0.400904,0.26727 -0.08452,0.0282 -0.182751,-0.0282 -0.267269,0 -0.119526,0.0398 -0.154578,0.21093 -0.267269,0.26727 -0.03984,0.0199 -0.102137,-0.0315 -0.133636,0 -0.0315,0.0315 0.0315,0.10214 0,0.13364 -0.0315,0.0315 -0.108926,-0.0371 -0.133635,0 -0.156274,0.23441 -0.141277,0.54982 -0.267269,0.8018 -0.02817,0.0564 -0.113713,0.0739 -0.133633,0.13364 -0.02817,0.0845 0,0.17818 0,0.26727 0,0.13363 0,0.26727 0,0.4009 0,0.0891 -0.02162,0.18084 0,0.26727 0.02416,0.0966 0.109476,0.17064 0.133633,0.26727 0.04321,0.17286 -0.04322,0.36168 0,0.53454 0.09689,0.38757 0.104259,0.15639 0.267269,0.40091 0.05525,0.0829 0.07838,0.18439 0.133635,0.26727 0.03494,0.0524 0.08909,0.0891 0.133636,0.13363 0.08909,0.0891 0.178178,0.17818 0.267269,0.26727 0.04454,0.0445 0.08122,0.0987 0.133636,0.13363 0.08288,0.0553 0.18439,0.0784 0.267269,0.13364 0.05242,0.0349 0.08122,0.0987 0.133635,0.13363 0.165754,0.11051 0.368784,0.15677 0.534538,0.26727 0.05242,0.035 0.08122,0.0987 0.133636,0.13364 0.165753,0.1105 0.368784,0.15677 0.534537,0.26727 0.05242,0.0349 0.07387,0.11371 0.133636,0.13363 0.08452,0.0282 0.182751,-0.0282 0.267269,0 0.05976,0.0199 0.08909,0.0891 0.133636,0.13364 0.08909,0.0891 0.178178,0.17818 0.267269,0.26727 0.222723,0.22272 0.44545,0.44545 0.668173,0.66817 0.08909,0.0891 0.168886,0.18856 0.267269,0.26727 0.203121,0.16249 0.598691,0.37204 0.801809,0.53454 0.196768,0.15741 0.337773,0.37712 0.534541,0.53454 0.125412,0.10033 0.267268,0.17818 0.400901,0.26727 0.133636,0.0891 0.257252,0.19544 0.400905,0.26727 0.125992,0.063 0.274913,0.0706 0.400905,0.13363 0.143653,0.0718 0.263183,0.18464 0.400904,0.26727 0.08541,0.0512 0.181859,0.0824 0.267269,0.13364 0.275442,0.16526 0.514504,0.39088 0.801809,0.53454 0.125992,0.063 0.270116,0.0813 0.400905,0.13363 0.09248,0.037 0.174789,0.0966 0.267269,0.13363 0.192505,0.077 0.48909,0.13296 0.668173,0.26727 0.100796,0.0756 0.15458,0.21093 0.267272,0.26727 0.07968,0.0399 0.179908,-0.0175 0.267269,0 0.138128,0.0276 0.270115,0.0813 0.400904,0.13364 0.757132,0.37856 -0.199213,-0.0498 0.534538,0.13363 0.09663,0.0242 0.170638,0.10948 0.267271,0.13364 0.08643,0.0216 0.179909,-0.0175 0.267269,0 0.138129,0.0276 0.261956,0.11047 0.400905,0.13363 0.131815,0.022 0.267269,0 0.400904,0 0.267269,0 0.534538,0 0.801807,0 0.267271,0 0.53454,0 0.801809,0 0.133636,0 0.272413,0.0367 0.400905,0 0.191545,-0.0547 0.345551,-0.20427 0.534537,-0.26727 0.08452,-0.0282 0.184553,0.0331 0.267272,0 0.149122,-0.0597 0.257252,-0.19544 0.400905,-0.26727 0.125991,-0.063 0.27491,-0.0706 0.400904,-0.13363 0.143653,-0.0718 0.263181,-0.18464 0.400902,-0.26727 0.08541,-0.0512 0.181859,-0.0824 0.267272,-0.13364 0.137721,-0.0826 0.261456,-0.18758 0.400904,-0.26726 0.172964,-0.0988 0.35636,-0.17818 0.534538,-0.26727 0.08909,-0.0445 0.187584,-0.0739 0.267269,-0.13364 0.100795,-0.0756 0.168886,-0.18856 0.267271,-0.26727 0.125413,-0.10033 0.287335,-0.1537 0.400902,-0.26727 0.11357,-0.11357 0.153702,-0.28733 0.267272,-0.4009 0.113567,-0.11357 0.287335,-0.1537 0.400904,-0.26727 0.07043,-0.0704 0.07387,-0.18759 0.133633,-0.26727 0.199684,-0.26625 0.320038,-0.21107 0.400905,-0.53454 0.02162,-0.0864 -0.02817,-0.18275 0,-0.26727 0.01992,-0.0598 0.113713,-0.0739 0.133636,-0.13363 0.02817,-0.0845 0,-0.17818 0,-0.26727 0,-0.0446 0,-0.0891 0,-0.13364 0,-0.0445 0.0315,-0.10214 0,-0.13363 -0.0315,-0.0315 -0.102137,0.0315 -0.133636,0 -0.0315,-0.0315 0.01992,-0.0938 0,-0.13364 -0.02817,-0.0563 -0.08909,-0.0891 -0.133636,-0.13363 -0.152897,-0.1529 -0.186364,-0.1582 -0.267269,-0.40091 -0.15916,-0.47748 0.517396,0.55051 -0.133633,-0.53454 -0.06482,-0.10803 -0.202448,-0.15923 -0.267271,-0.26727 -0.07247,-0.12079 -0.06116,-0.28011 -0.133633,-0.4009 -0.06482,-0.10804 -0.202449,-0.15923 -0.267272,-0.26727 -0.269507,-0.44918 0.0032,-0.30759 -0.267269,-0.66817 -0.289004,-0.38534 -0.193077,-0.17327 -0.534537,-0.40091 -0.05242,-0.0349 -0.08324,-0.0958 -0.133636,-0.13363 -0.128487,-0.0964 -0.272418,-0.17091 -0.400905,-0.26727 -0.05039,-0.0378 -0.08909,-0.0891 -0.133633,-0.13364 -0.08909,-0.0891 -0.166476,-0.19167 -0.267271,-0.26727 -0.159369,-0.11952 -0.363718,-0.16477 -0.534538,-0.26727 -1.477671,-0.98511 0.359132,0.21548 -0.668173,-0.4009 -0.137721,-0.0826 -0.257252,-0.19544 -0.400905,-0.26727 -0.125992,-0.063 -0.274913,-0.0706 -0.400905,-0.13363 -0.143653,-0.0718 -0.253283,-0.20401 -0.400904,-0.26727 -0.168812,-0.0724 -0.357942,-0.0832 -0.534541,-0.13364 -0.135442,-0.0387 -0.270115,-0.0813 -0.400902,-0.13363 -0.09248,-0.037 -0.1696,-0.1141 -0.267271,-0.13364 -0.133924,-0.0268 -0.627795,0 -0.801807,0 -0.445449,0 -0.890899,0 -1.336349,0 -0.311814,0 -0.623628,0 -0.935442,0 -0.08909,0 -0.178181,0 -0.267269,0 -0.08909,0 -0.182753,-0.0282 -0.267272,0 -0.05976,0.0199 -0.08909,0.0891 -0.133633,0.13364 -0.08909,0.0445 -0.170638,0.10947 -0.267269,0.13363 -0.08643,0.0216 -0.178181,0 -0.267271,0 -0.222724,0 -0.445447,0 -0.668174,0 -0.05283,0 -0.6111,0.0285 -0.668173,0 -0.05635,-0.0282 -0.07729,-0.10546 -0.133636,-0.13363 -0.03984,-0.0199 -0.102137,0.0315 -0.133633,0 -0.0315,-0.0315 0.03984,-0.11372 0,-0.13364 -0.07968,-0.0398 -0.187587,0.0398 -0.267271,0 -0.03984,-0.0199 0.0315,-0.10214 0,-0.13363 -0.063,-0.063 -0.182751,0.0282 -0.267269,0 -0.967973,-0.32266 0.21069,0.0385 -0.400905,-0.26727 -0.03984,-0.0199 -0.08909,0 -0.133633,0 -0.08909,0 -0.182753,0.0282 -0.267272,0 -0.05976,-0.0199 -0.07729,-0.10546 -0.133633,-0.13364 -0.03984,-0.0199 -0.08909,0 -0.133635,0 -0.04455,0 -0.08909,0 -0.133633,0 -0.178181,0 -0.35636,0 -0.534541,0 z"
       inkscape:connector-curvature="0" />
    <path
       id="path4727"
       style="opacity:1;vector-effect:none;fill:#1f4c08;fill-opacity:1;stroke:#000000;stroke-width:1.5;stroke-linecap:butt;stroke-linejoin:miter;stroke-miterlimit:4;stroke-dasharray:none;stroke-dashoffset:0;stroke-opacity:1"
       d="m 20.27502,161.79351 c -0.489995,0 -0.97999,0 -1.469982,0 -0.178181,0 -0.357736,-0.0221 -0.534541,0 -0.182245,0.0228 -0.356359,0.0891 -0.534537,0.13363 -0.178181,0.0445 -0.35636,0.0891 -0.534541,0.13364 -0.178178,0.0445 -0.362569,0.0691 -0.534538,0.13363 -0.186528,0.07 -0.372435,0.15148 -0.53454,0.26727 -0.30757,0.21969 -0.511439,0.55983 -0.801809,0.80181 -0.123383,0.10282 -0.287335,0.1537 -0.400902,0.26727 -0.07043,0.0704 -0.08239,0.18186 -0.133636,0.26727 -0.08263,0.13772 -0.184637,0.26318 -0.267269,0.4009 -0.05125,0.0854 -0.08909,0.17818 -0.133635,0.26727 -0.154057,0.30812 -0.316339,0.59718 -0.400905,0.93545 -0.01079,0.0432 0.01079,0.0904 0,0.13363 -0.03416,0.13666 -0.106008,0.26278 -0.133633,0.4009 -0.01746,0.0874 0,0.17818 0,0.26727 0,0.13364 0,0.26727 0,0.40091 0,0.13897 -0.02627,0.69669 0,0.80181 0.02416,0.0966 0.08909,0.17818 0.133633,0.26727 0.08909,0.17818 0.178181,0.35636 0.267269,0.53454 0.133636,0.26727 0.267271,0.53453 0.400904,0.8018 0.04455,0.0891 0.07387,0.18759 0.133636,0.26727 0.07559,0.1008 0.202446,0.15924 0.267269,0.26727 0.07248,0.12079 0.06116,0.28012 0.133636,0.40091 0.06482,0.10803 0.191675,0.16647 0.267269,0.26727 0.292682,0.39024 -0.06671,0.18383 0.400904,0.53454 0.07968,0.0598 0.196837,0.0632 0.267269,0.13363 0.07043,0.0704 0.0632,0.19684 0.133636,0.26727 0.682924,0.68292 -0.186386,-0.56033 0.534538,0.40091 0.115472,0.15396 0.29184,0.69274 0.400904,0.8018 0.07043,0.0704 0.212019,0.0508 0.267269,0.13364 0.04942,0.0741 -0.03984,0.18758 0,0.26727 0.435097,0.87019 0.133929,-0.26639 0.400905,0.53454 0.02673,0.0802 0,0.56154 0,0.66817 0,0.0746 0.0204,0.607 0,0.66817 -0.01992,0.0598 -0.113713,0.0739 -0.133633,0.13364 -0.02817,0.0845 0,0.17818 0,0.26727 0,0.0891 0,0.17818 0,0.26727 0,0.12546 -0.02553,0.5916 0,0.66817 0.01992,0.0598 0.113712,0.0739 0.133633,0.13364 0.02817,0.0845 -0.02817,0.18275 0,0.26727 0.01992,0.0598 0.09869,0.0812 0.133635,0.13363 0.05525,0.0829 0.09664,0.17479 0.133636,0.26727 0.05231,0.13079 0.04912,0.28821 0.133633,0.4009 0.05976,0.0797 0.187587,0.0739 0.267269,0.13364 0.270163,0.20262 0.264321,0.26137 0.400905,0.53454 0.04454,0.0891 0.05076,0.21202 0.133635,0.26727 0.07413,0.0494 0.193144,-0.0494 0.267269,0 0.08288,0.0553 0.05076,0.21202 0.133636,0.26727 0.400905,0.26727 0.133633,-0.13364 0.400905,0 0.05635,0.0282 0.07252,0.11835 0.133633,0.13363 0.129646,0.0324 0.267271,0 0.400904,0 0.267269,0 0.534541,0 0.80181,0 0.222723,0 0.445449,0 0.668173,0 0.04454,0 0.102137,0.0315 0.133636,0 0.0315,-0.0315 0,-0.0891 0,-0.13363 0,-0.44545 0,-0.8909 0,-1.33635 0,-0.13363 0.02196,-0.26909 0,-0.4009 -0.02315,-0.13895 -0.08909,-0.26727 -0.133636,-0.40091 -0.04454,-0.13363 -0.07814,-0.27143 -0.133633,-0.4009 -0.07848,-0.18311 -0.204274,-0.34555 -0.267272,-0.53454 -0.02817,-0.0845 0.02817,-0.18275 0,-0.26727 -0.06299,-0.18899 -0.188796,-0.35144 -0.267268,-0.53454 -0.05549,-0.12947 -0.08132,-0.27012 -0.133636,-0.4009 -0.03699,-0.0925 -0.09664,-0.17479 -0.133633,-0.26728 -0.104632,-0.26157 -0.189873,-0.53092 -0.267272,-0.8018 -0.05046,-0.1766 -0.07555,-0.3603 -0.133633,-0.53454 -0.0315,-0.0945 -0.109477,-0.17064 -0.133636,-0.26727 -0.02162,-0.0864 0.02162,-0.18084 0,-0.26727 -0.02416,-0.0966 -0.109476,-0.17064 -0.133633,-0.26727 -0.02162,-0.0864 0,-0.17818 0,-0.26727 0,-0.0891 0,-0.17818 0,-0.26727 0,-0.0891 0,-0.17818 0,-0.26727 0,-0.0445 -0.01408,-0.0914 0,-0.13363 0.0315,-0.0945 0.102135,-0.17278 0.133633,-0.26727 0.01408,-0.0423 -0.01408,-0.0914 0,-0.13364 0.0315,-0.0945 0.08909,-0.17818 0.133636,-0.26727 0.04454,-0.0891 0.0632,-0.19684 0.133633,-0.26727 0.07043,-0.0704 0.212019,-0.0508 0.267272,-0.13363 0.04942,-0.0741 -0.04942,-0.19314 0,-0.26727 0.05525,-0.0829 0.196836,-0.0632 0.267269,-0.13364 0.07043,-0.0704 0.07387,-0.18758 0.133635,-0.26727 0.0099,-0.0132 0.463053,-0.48688 0.534538,-0.53453 0.08288,-0.0553 0.184393,-0.0784 0.267269,-0.13364 0.05242,-0.0349 0.08122,-0.0987 0.133636,-0.13363 0.235047,-0.1567 0.396523,-0.15861 0.668173,-0.26727 0.184962,-0.074 0.349578,-0.19329 0.53454,-0.26727 0.130789,-0.0523 0.270116,-0.0813 0.400905,-0.13364 0.09248,-0.037 0.169598,-0.1141 0.267269,-0.13363 0.13104,-0.0262 0.269864,0.0262 0.400904,0 0.09767,-0.0195 0.169598,-0.1141 0.267269,-0.13364 0.13104,-0.0262 0.269087,0.022 0.400905,0 0.138946,-0.0232 0.262776,-0.10601 0.400904,-0.13363 0.08736,-0.0175 0.180841,0.0216 0.267269,0 0.193263,-0.0483 0.341276,-0.21896 0.534538,-0.26727 0.886423,0 -0.188987,0.063 0.400905,-0.13364 0.08452,-0.0282 0.18084,0.0216 0.267271,0 0.645314,-0.16133 -0.0066,-0.0635 0.400902,-0.26727 0.03984,-0.0199 0.0938,0.0199 0.133636,0 0.05635,-0.0282 0.07729,-0.10546 0.133636,-0.13363 0.03984,-0.0199 0.09657,0.0247 0.133633,0 0.104833,-0.0699 0.15458,-0.21093 0.267271,-0.26727 0.07969,-0.0398 0.182751,0.0282 0.267269,0 0.05976,-0.0199 0.08909,-0.0891 0.133636,-0.13364 0.133633,-0.13363 0.249713,-0.28751 0.400902,-0.4009 0.07968,-0.0598 0.187587,-0.0739 0.267271,-0.13363 0.100793,-0.0756 0.166476,-0.19168 0.267269,-0.26727 0.216382,-0.16229 0.264657,-0.0629 0.400905,-0.26727 0.05525,-0.0829 0.07387,-0.18759 0.133633,-0.26727 0.0756,-0.1008 0.210926,-0.15458 0.267271,-0.26727 0.03984,-0.0797 -0.03984,-0.18759 0,-0.26727 0.05635,-0.11269 0.210923,-0.15458 0.267269,-0.26727 0.03984,-0.0797 -0.02817,-0.18275 0,-0.26727 0.01992,-0.0598 0.09869,-0.0812 0.133636,-0.13364 0.05525,-0.0829 0.07838,-0.18439 0.133633,-0.26727 0.03494,-0.0524 0.113715,-0.0739 0.133636,-0.13363 0.02817,-0.0845 -0.02817,-0.18275 0,-0.26727 0.01992,-0.0598 0.09869,-0.0812 0.133633,-0.13363 0.29442,-0.0673 0.07064,-0.27492 0.133636,-0.40091 0.111394,-0.22279 0.267268,-0.0604 0.267268,-0.4009 0,-0.0445 -0.01992,-0.0938 0,-0.13364 0.02817,-0.0563 0.09869,-0.0812 0.133636,-0.13363 0.05525,-0.0829 0.07838,-0.1844 0.133636,-0.26727 0.03494,-0.0524 0.113713,-0.0739 0.133633,-0.13364 0.02817,-0.0845 -0.04942,-0.19314 0,-0.26727 0.109149,-0.16372 0.332478,-0.062 0.400905,-0.26727 0.02817,-0.0845 -0.03984,-0.18758 0,-0.26727 0.133635,-0.26726 0.267268,-0.20045 0.400904,-0.4009 0.05525,-0.0829 0.07838,-0.18439 0.133636,-0.26727 0.03494,-0.0524 0.08909,-0.0891 0.133633,-0.13363 0.08909,-0.0891 0.159232,-0.20245 0.267269,-0.26727 0.12079,-0.0725 0.274913,-0.0706 0.400904,-0.13364 0.143653,-0.0718 0.263184,-0.18464 0.400905,-0.26727 0.255479,-0.15328 0.54633,-0.24762 0.801809,-0.4009 0.806302,-0.48378 0.05723,-0.0954 0.668174,-0.40091 0.08909,-0.0445 0.178181,-0.0891 0.267269,-0.13363 0.08909,-0.0446 0.196839,-0.0632 0.267271,-0.13364 0.07043,-0.0704 0.05076,-0.21201 0.133633,-0.26727 0.07413,-0.0494 0.187587,0.0399 0.267272,0 0.267269,-0.13363 0.200451,-0.26726 0.400902,-0.4009 0.04765,-0.32828 0.283699,-0.0555 0.400904,-0.13363 0.104833,-0.0699 0.15458,-0.21093 0.267272,-0.26727 0.07968,-0.0399 0.18275,0.0282 0.267269,0 0.05976,-0.0199 0.08122,-0.0987 0.133633,-0.13364 0.165753,-0.1105 0.375171,-0.14774 0.53454,-0.26727 0.100793,-0.0756 0.154578,-0.21092 0.267269,-0.26727 0.07968,-0.0398 0.179911,0.0175 0.267269,0 0.275222,-0.055 0.430601,-0.14848 0.668176,-0.26727 0.344733,-0.17236 0.703709,-0.27911 1.069078,-0.4009 0.534538,-0.17818 1.069078,-0.35636 1.603616,-0.53454 0.133635,-0.0446 0.270115,-0.0813 0.400904,-0.13364 0.334992,-0.13399 0.570656,-0.3097 0.935443,-0.4009 0.219424,-0.0549 0.124687,0.14258 0.400904,-0.13363 0.0315,-0.0315 -0.0315,-0.10214 0,-0.13364 0.063,-0.063 0.204274,0.063 0.267272,0 0.0315,-0.0315 0.0315,-0.10214 0,-0.13363 -0.0315,-0.0315 -0.102137,0.0315 -0.133636,0 -0.07043,-0.0704 -0.05395,-0.20751 -0.133636,-0.26727 -0.112689,-0.0845 -0.280114,-0.0612 -0.400904,-0.13364 -0.543867,-0.32632 0.0084,-0.21992 -0.534538,-0.4009 -0.120272,-0.0401 -0.280633,0.0401 -0.400905,0 -0.05976,-0.0199 -0.07729,-0.10546 -0.133636,-0.13364 -0.04067,-0.0203 -0.340719,0 -0.400904,0 -0.445447,0 -0.890897,0 -1.336347,0 -0.400905,0 -0.801809,0 -1.202711,0 -0.08909,0 -0.178181,0 -0.267272,0 -0.08909,0 -0.18084,-0.0216 -0.267269,0 -0.09663,0.0242 -0.170637,0.10948 -0.267268,0.13364 -0.172861,0.0432 -0.36168,-0.0432 -0.534541,0 -0.193262,0.0483 -0.345551,0.20427 -0.534537,0.26727 -0.126778,0.0423 -0.271259,-0.0324 -0.400905,0 -0.193262,0.0483 -0.341275,0.21895 -0.53454,0.26727 -0.08643,0.0216 -0.187585,-0.0398 -0.267269,0 -0.112692,0.0563 -0.159232,0.20244 -0.267269,0.26727 -0.12079,0.0725 -0.270116,0.0813 -0.400905,0.13363 -0.09248,0.037 -0.174789,0.0966 -0.267269,0.13364 -0.130788,0.0523 -0.280114,0.0612 -0.400904,0.13363 -0.108037,0.0648 -0.159232,0.20245 -0.267269,0.26727 -0.12079,0.0725 -0.274913,0.0706 -0.400905,0.13363 -0.143652,0.0718 -0.257251,0.19545 -0.400904,0.26727 -0.125992,0.063 -0.274913,0.0706 -0.400905,0.13364 -0.287306,0.14365 -0.522914,0.37517 -0.801809,0.53454 -0.172963,0.0988 -0.372433,0.15148 -0.534538,0.26727 -0.766238,0.54731 -0.08211,0.21574 -0.668173,0.80181 -0.11357,0.11356 -0.267272,0.17818 -0.400905,0.26727 -0.133635,0.0891 -0.267271,0.17818 -0.400904,0.26727 -0.08909,0.0891 -0.166476,0.19167 -0.267269,0.26726 -0.07969,0.0598 -0.187587,0.0739 -0.267272,0.13364 -0.201586,0.15119 -0.332951,0.38335 -0.534537,0.53454 -0.07969,0.0598 -0.184394,0.0784 -0.267269,0.13363 -0.05242,0.035 -0.08122,0.0987 -0.133636,0.13364 -0.08288,0.0553 -0.184393,0.0784 -0.267269,0.13363 -0.05242,0.0349 -0.08122,0.0987 -0.133636,0.13364 -0.08287,0.0553 -0.178178,0.0891 -0.267268,0.13363 -0.178181,0.0891 -0.35636,0.17818 -0.534541,0.26727 -0.178178,0.0891 -0.345551,0.20428 -0.534537,0.26727 -0.04226,0.0141 -0.09379,-0.0199 -0.133636,0 -0.112692,0.0564 -0.162438,0.19738 -0.267269,0.26727 0.01521,0.25316 -0.311814,0.0891 -0.400905,0.13364 -0.05635,0.0282 -0.07387,0.11371 -0.133635,0.13363 -0.08452,0.0282 -0.182751,-0.0282 -0.267269,0 -0.05976,0.0199 -0.08909,0.0891 -0.133636,0.13364 -0.08909,0.0445 -0.170638,0.10947 -0.267269,0.13363 -0.08643,0.0216 -0.18084,-0.0216 -0.267269,0 -0.09663,0.0242 -0.174789,0.0966 -0.267269,0.13363 -0.825664,0.33027 -0.04138,-0.0461 -0.668173,0.26727 -0.08909,0.0446 -0.178181,0.0891 -0.267271,0.13364 -0.08909,0.0445 -0.170638,0.10948 -0.267269,0.13363 -0.608344,0 -0.0076,-0.063 -0.400905,0.13364 -0.03984,0.0199 -0.09379,-0.0199 -0.133633,0 -0.05635,0.0282 -0.07729,0.10546 -0.133636,0.13363 -0.07968,0.0399 -0.187584,-0.0398 -0.267269,0 -0.05635,0.0282 -0.07729,0.10547 -0.133635,0.13364 -0.03984,0.0199 -0.09379,-0.0199 -0.133636,0 -0.05634,0.0282 -0.07729,0.10546 -0.133633,0.13363 -0.07969,0.0398 -0.204274,-0.063 -0.267269,0 -0.0315,0.0315 0,0.0891 0,0.13364 -0.08909,0.0445 -0.172776,0.10213 -0.267272,0.13363 -0.04226,0.0141 -0.08909,0 -0.133633,0 -0.04454,0.0445 -0.07729,0.10546 -0.133635,0.13364 -0.03984,0.0199 -0.102138,-0.0315 -0.133636,0 -0.0315,0.0315 0.0315,0.10213 0,0.13363 -0.03657,0.0366 -0.462042,-0.0362 -0.534538,0 -0.05635,0.0282 -0.07729,0.10546 -0.133636,0.13364 -0.03984,0.0199 -0.09379,-0.0199 -0.133633,0 -0.05635,0.0282 -0.07729,0.10546 -0.133635,0.13363 -0.03984,0.0199 -0.09379,-0.0199 -0.133636,0 -0.05635,0.0282 -0.07729,0.10546 -0.133633,0.13364 -0.03984,0.0199 -0.08909,0 -0.133636,0 -0.04454,0 -0.102137,0.0315 -0.133636,0 -0.157488,-0.15749 -0.267269,-0.35636 -0.400902,-0.53454 z"
       inkscape:connector-curvature="0" />
    <path
       id="path4735"
       style="opacity:1;vector-effect:none;fill:#1f4c08;fill-opacity:1;stroke:#000000;stroke-width:1.5;stroke-linecap:butt;stroke-linejoin:miter;stroke-miterlimit:4;stroke-dasharray:none;stroke-dashoffset:0;stroke-opacity:1"
       d="m -3.1110643,181.30418 c -1.480517,1.18442 -0.123154,-0.0122 -0.9354434,0.93545 -0.163989,0.19132 -0.3705497,0.34321 -0.534539,0.53453 -0.2090457,0.24389 -0.3338756,0.55099 -0.534539,0.80181 -0.078707,0.0984 -0.1885627,0.16889 -0.2672694,0.26727 -0.2006634,0.25083 -0.3563593,0.53454 -0.534539,0.80181 -0.1568725,0.23531 -0.2981738,0.41135 -0.4009043,0.66817 -0.1618076,0.40452 -0.1336347,0.31122 -0.1336347,0.66818 0,0.13363 0.026207,0.26986 0,0.4009 -0.019534,0.0977 -0.1141008,0.1696 -0.133635,0.26727 -0.026207,0.13104 0,0.26727 0,0.40091 0,0.13363 -0.042259,0.27413 0,0.4009 0.050789,0.15237 0.1846368,0.26318 0.2672697,0.4009 0.051247,0.0854 0.071411,0.1895 0.1336346,0.26728 0.1783094,0.22288 0.6976483,0.68291 0.9354434,0.8018 0.1642734,0.0821 0.3625697,0.0692 0.534539,0.13364 1.3976252,0.52411 -0.3029974,0.0579 1.0690781,0.4009 0.1781797,0.0445 0.3552491,0.0938 0.534539,0.13364 0.2217267,0.0493 0.4526944,0.0618 0.668174,0.13363 0.1889879,0.063 0.3429928,0.21254 0.534539,0.26727 0.128493,0.0367 0.2672694,0 0.4009043,0 0.1336347,0 0.2672694,0 0.4009041,0 0.31181464,0 0.623629,0 0.93544337,0 0.08908997,0 0.18275167,0.0282 0.26726964,0 0.09449409,-0.0315 0.17478825,-0.0966 0.26726938,-0.13363 0.13078857,-0.0523 0.26726965,-0.0891 0.40090434,-0.13364 0.13363495,-0.0445 0.28011487,-0.0612 0.40090437,-0.13363 0.1080373,-0.0648 0.1688861,-0.18856 0.2672696,-0.26727 0.1254144,-0.10033 0.2754897,-0.16694 0.4009041,-0.26727 0.1967666,-0.15742 0.3563596,-0.35636 0.5345393,-0.53454 0.08909,-0.0891 0.1916742,-0.16648 0.2672693,-0.26727 0.059763,-0.0797 0.082388,-0.18186 0.1336347,-0.26727 0.082633,-0.13772 0.1846371,-0.26318 0.2672697,-0.4009 0.1024932,-0.17083 0.1781797,-0.35636 0.2672694,-0.53454 0.08909,-0.17818 0.1932844,-0.34958 0.2672691,-0.53454 0.052316,-0.13079 0.049117,-0.28822 0.1336357,-0.40091 0.059764,-0.0797 0.1968368,-0.0632 0.2672689,-0.13363 0.070432,-0.0704 0.089091,-0.17818 0.1336357,-0.26727 0.4844653,-0.96893 -0.1408641,0.2113 0.2672689,-0.40091 0.05525,-0.0829 0.073872,-0.18758 0.1336357,-0.26726 0.075594,-0.1008 0.1781784,-0.17818 0.2672689,-0.26727 0.044545,-0.0446 0.081219,-0.0987 0.1336331,-0.13364 0.082878,-0.0553 0.1875869,-0.0739 0.2672715,-0.13363 0.084661,-0.0635 0.7383118,-0.71715 0.8018065,-0.80181 0.059764,-0.0797 0.078385,-0.18439 0.1336358,-0.26727 0.1048332,-0.15725 0.2875121,-0.24971 0.4009046,-0.40091 0.059764,-0.0797 0.073872,-0.18758 0.1336357,-0.26727 0.075594,-0.10079 0.202446,-0.15923 0.2672689,-0.26727 0.6519598,-1.0866 -0.2736004,0.14314 0.2672688,-0.66817 0.3841962,-0.57629 -0.2238348,0.69322 0.2672689,-0.53454 0.036994,-0.0925 0.1141015,-0.1696 0.1336357,-0.26727 0.026194,-0.13104 0,-0.26727 0,-0.4009 0,-0.13364 0,-0.26727 0,-0.4009 0,-0.17819 0,-0.35636 0,-0.53454 0,-0.0891 0.021617,-0.18084 0,-0.26727 -0.024156,-0.0966 -0.08909,-0.17818 -0.1336357,-0.26727 -0.044543,-0.0891 -0.078383,-0.1844 -0.1336331,-0.26727 -0.034944,-0.0524 -0.08909,-0.0891 -0.1336358,-0.13364 -0.089091,-0.0891 -0.1624383,-0.19738 -0.2672688,-0.26727 -0.037063,-0.0247 -0.091376,0.0141 -0.1336358,0 -0.094493,-0.0315 -0.1706377,-0.10948 -0.2672688,-0.13363 -0.093631,-0.0234 -0.7534222,0 -0.8018092,0 -0.4454499,0 -0.8908971,0 -1.3363469,0 -0.4009046,0 -0.8018092,0 -1.202713,0 -0.2672694,0 -0.5356365,-0.0242 -0.8018084,0 -0.2262026,0.0206 -0.4454494,0.0891 -0.668174,0.13363 -0.84827057,0.16966 -0.44782,0.0786 -1.20271275,0.26727 -1.1616547,0.29041 -0.0825701,-0.0204 -0.80180867,0.26727 -0.1307883,0.0523 -0.28821353,0.0491 -0.40090434,0.13364 -0.0796843,0.0598 -0.0507579,0.21201 -0.13363469,0.26727 -0.0741272,0.0494 -0.18275145,-0.0282 -0.26726965,0 -0.059763,0.0199 -0.08909,0.0891 -0.1336347,0.13363 -0.044545,0.0445 -0.08909,0.0891 -0.1336347,0.13364 -0.4432107,0.44321 0.125992,-0.063 -0.2672696,0.13363 -0.1603616,0.0802 -0.2405425,0.32072 -0.4009041,0.40091 -0.039842,0.0199 -0.08909,0 -0.1336349,0 -0.044545,0.0445 -0.077289,0.10546 -0.1336347,0.13363 -0.039842,0.0199 -0.1021369,-0.0315 -0.1336347,0 -0.031498,0.0315 0.031498,0.10214 0,0.13363 -0.031498,0.0315 -0.1021369,-0.0315 -0.133635,0 -0.031498,0.0315 0.031498,0.10214 0,0.13364 -0.031498,0.0315 -0.1021365,-0.0315 -0.1336347,0 -0.031498,0.0315 0.031498,0.10213 0,0.13363 -0.031498,0.0315 -0.08909,0 -0.1336347,0 -0.08909,0.17818 -0.1781796,0.35636 -0.2672696,0.53454 z"
       inkscape:connector-curvature="0" />
    <path
       style="opacity:1;vector-effect:none;fill:#1f4c08;fill-opacity:1;stroke:#000000;stroke-width:1.5;stroke-linecap:butt;stroke-linejoin:miter;stroke-miterlimit:4;stroke-dasharray:none;stroke-dashoffset:0;stroke-opacity:1"
       d="m 106.30836,267.72393 c -2.40475,0.30875 -4.09234,2.37336 -4.76296,4.46443 -0.90988,1.94469 -3.061771,2.89292 -5.264348,2.73355 -1.712622,0.0749 -3.33974,-0.10535 -4.949027,-0.5669 -1.114593,0.22002 -3.332604,-0.68954 -2.848655,1.15441 0.456784,2.02792 1.171455,3.14685 2.281763,5.08238 0.370937,1.10345 1.014489,3.24108 0.945163,5.33879 -0.0294,1.837 0.183983,3.71343 -0.56741,5.43317 -0.230344,2.65815 -2.342329,4.73731 -4.913394,5.10304 -2.000504,0.37414 -4.247767,0.55328 -6.236827,1.32292 -2.252736,0.2017 -4.466289,1.63538 -6.422353,2.04128 -1.887175,0.70971 -3.916801,1.03636 -4.538737,3.06125 -0.251626,1.04391 -0.167292,2.13107 -0.378272,3.14197 -0.171593,1.39199 0.200777,2.46786 1.512054,3.09486 0.900209,0.78858 2.175145,1.08527 3.212724,1.51154 1.465036,0.0213 2.188031,0.99602 3.685228,0.75602 1.587021,-0.0512 3.516504,0.19381 4.724715,-0.38695 0.347506,-0.42137 2.209328,-1.20628 2.874121,-0.36081 2.414345,0.74284 4.79484,0.75898 7.12268,-0.60052 14.976515,-5.95422 28.109005,-16.45635 37.344895,-29.64543 -0.0575,-2.07587 0.11428,-4.2034 -0.0895,-6.24927 -1.13666,-1.88867 -1.76384,-2.83042 -3.50154,-3.95631 -1.16345,-0.575 -2.58492,-1.54853 -3.96875,-2.07842 -1.04656,0.14707 -1.86791,-0.26731 -2.88157,-0.18914 -1.47608,0.7784 -3.38414,-0.16555 -5.2018,0.20053 -1.96734,-0.41056 -4.02069,0.003 -5.99554,-0.40141 -0.39429,0.0324 -0.78867,-0.007 -1.1827,-0.005 z"
       id="path884-2"
       inkscape:connector-curvature="0" />
  </g>
</svg>
